<svg width="89" height="88" viewBox="0 0 89 88" fill="none" xmlns="http://www.w3.org/2000/svg">
<path d="M86.5 44C86.5 52.3068 84.0367 60.4271 79.4217 67.3339C74.8067 74.2408 68.2472 79.6241 60.5727 82.8029C52.8982 85.9818 44.4534 86.8136 36.3062 85.193C28.159 83.5724 20.6753 79.5723 14.8015 73.6985C8.92771 67.8247 4.9276 60.341 3.30702 52.1938C1.68644 44.0466 2.51818 35.6018 5.69706 27.9273C8.87594 20.2528 14.2592 13.6933 21.1661 9.07828C28.0729 4.46326 36.1932 2 44.5 2" stroke="#35CC8F" stroke-opacity="0.15" stroke-width="4"/>
<path d="M2 44C2 32.7283 6.47767 21.9183 14.448 13.948C22.4183 5.97766 33.2283 1.5 44.5 1.5C55.7717 1.5 66.5817 5.97767 74.552 13.948C82.5223 21.9183 87 32.7283 87 44C87 55.2717 82.5223 66.0817 74.552 74.052C66.5817 82.0223 55.7717 86.5 44.5 86.5C33.2283 86.5 22.4183 82.0223 14.448 74.052C6.47767 66.0817 2 55.2717 2 44L2 44Z" stroke="#29AAF2" stroke-width="3"/>
<path d="M44.9998 49V29M44.9998 29L34.9998 39M44.9998 29L54.9998 39M29.7617 48.0476V53.7619C29.7617 54.8139 30.6145 55.6667 31.6665 55.6667H58.3331C59.3851 55.6667 60.2379 54.8139 60.2379 53.7619V48.0476" stroke="#29AAF2" stroke-width="3"/>
</svg>
