<svg width="89" height="88" viewBox="0 0 89 88" fill="none" xmlns="http://www.w3.org/2000/svg">
<path d="M2 44C2 32.7283 6.47767 21.9183 14.448 13.948C22.4183 5.97766 33.2283 1.5 44.5 1.5C55.7717 1.5 66.5817 5.97767 74.552 13.948C82.5223 21.9183 87 32.7283 87 44C87 55.2717 82.5223 66.0817 74.552 74.052C66.5817 82.0223 55.7717 86.5 44.5 86.5C33.2283 86.5 22.4183 82.0223 14.448 74.052C6.47767 66.0817 2 55.2717 2 44L2 44Z" stroke="#DD312A" stroke-width="3"/>
<path d="M33.2168 32.215L56.7869 55.7851M56.7872 32.215L33.2171 55.7851" stroke="#DD312A" stroke-width="3"/>
</svg>
