<svg width="76" height="14" viewBox="0 0 76 14" fill="none" xmlns="http://www.w3.org/2000/svg">
<g clip-path="url(#clip0_2388_28838)">
<path d="M69.2909 7.59449H73.5069C73.3937 7.32626 73.2288 7.07828 73.0189 6.86572C72.126 5.96152 70.6718 5.96152 69.779 6.86572C69.5674 7.07828 69.4042 7.32457 69.2909 7.59449ZM71.3981 12.6537C70.1238 12.6537 68.9377 12.0683 68.1415 11.0224C67.6967 10.437 67.4152 9.73523 67.3319 9.0014C67.1787 7.6569 67.6551 6.36639 68.6229 5.46049C70.1571 4.0249 72.5641 4.00128 74.1216 5.41157C74.2199 5.50098 74.3132 5.59208 74.4015 5.68823C75.2627 6.62786 75.5941 7.94706 75.3676 9.2089L75.3293 9.42145H69.2909C69.4774 9.86343 69.8023 10.2464 70.2404 10.5146C70.4203 10.6242 70.6168 10.7069 70.8201 10.7575C71.6396 10.96 72.4508 10.7238 73.0189 10.1485L74.2932 11.439C73.5203 12.2218 72.4925 12.6537 71.3981 12.6537Z" fill="#0A1F8F"/>
<path d="M43.3936 4.36907C42.6424 4.34208 41.9394 4.54282 41.3431 4.90721V1.63115C41.3431 1.49957 41.2381 1.3916 41.1065 1.3916H39.7756C39.6457 1.3916 39.5391 1.49788 39.5391 1.63115V8.13603V12.4192C39.5391 12.5508 39.644 12.6587 39.7756 12.6587H41.1065C41.2365 12.6587 41.3431 12.5525 41.3431 12.4192V8.20182C41.3431 7.18459 42.086 6.29051 43.0855 6.19941C44.2232 6.09651 45.181 7.00409 45.181 8.13603V12.404C45.181 12.5356 45.286 12.6436 45.4175 12.6436H46.7485C46.8784 12.6436 46.985 12.5356 46.985 12.404V8.23725C46.985 6.1876 45.4142 4.43823 43.3936 4.36907Z" fill="#0A1F8F"/>
<path d="M52.1062 6.18612C50.8435 6.18612 49.8141 7.22697 49.8141 8.50736C49.8141 9.78776 50.8419 10.8286 52.1062 10.8286C53.3688 10.8286 54.3983 9.78776 54.3983 8.50736C54.3983 7.22697 53.3688 6.18612 52.1062 6.18612ZM52.1062 12.6539C49.8491 12.6539 48.0117 10.7932 48.0117 8.50736C48.0117 6.22155 49.8491 4.36084 52.1062 4.36084C54.3633 4.36084 56.2006 6.22155 56.2006 8.50736C56.2006 10.7932 54.3633 12.6539 52.1062 12.6539Z" fill="#0A1F8F"/>
<path d="M35.7644 12.6539C34.67 12.6539 33.6422 12.222 32.8693 11.4393C32.0964 10.6565 31.6699 9.61569 31.6699 8.50736C31.6699 7.39904 32.0964 6.35819 32.8693 5.57544C33.6422 4.7927 34.67 4.36084 35.7644 4.36084C36.8588 4.36084 37.8866 4.7927 38.6595 5.57544L37.3852 6.86596C36.4923 5.96176 35.0381 5.96176 34.1453 6.86596C33.2524 7.77017 33.2524 9.24287 34.1453 10.1471C34.5784 10.5857 35.153 10.8269 35.766 10.8269C36.3774 10.8269 36.9537 10.5857 37.3868 10.1471L38.6611 11.4376C37.8866 12.222 36.8588 12.6539 35.7644 12.6539Z" fill="#0A1F8F"/>
<path d="M64.2282 12.6539C63.1338 12.6539 62.1061 12.222 61.3331 11.4393C60.5602 10.6565 60.1338 9.61569 60.1338 8.50736C60.1338 7.39904 60.5602 6.35819 61.3331 5.57544C62.1061 4.7927 63.1355 4.36084 64.2282 4.36084C65.3227 4.36084 66.3504 4.7927 67.1233 5.57544L65.849 6.86596C64.9562 5.96176 63.502 5.96176 62.6091 6.86596C61.7163 7.77017 61.7163 9.24287 62.6091 10.1471C63.0422 10.5857 63.6169 10.8269 64.2299 10.8269C64.8412 10.8269 65.4176 10.5857 65.8507 10.1471L67.125 11.4376C66.3504 12.222 65.321 12.6539 64.2282 12.6539Z" fill="#0A1F8F"/>
<path d="M30.4602 12.6572H29.1192C28.9893 12.6572 28.8827 12.5509 28.8827 12.4176V8.18001C28.8827 7.16278 28.1381 6.27207 27.137 6.17591C25.9893 6.06626 25.0198 6.98228 25.0198 8.12265V12.4176C25.0198 12.5492 24.9148 12.6572 24.7832 12.6572H23.4406C23.3107 12.6572 23.2041 12.5509 23.2041 12.4176V8.21544C23.2041 6.16073 24.7783 4.40968 26.8055 4.33208C28.936 4.2511 30.6951 5.98191 30.6951 8.12265V12.4176C30.6967 12.5509 30.5901 12.6572 30.4602 12.6572Z" fill="#0A1F8F"/>
<path d="M11.5098 6.55538L5.41473 0.382827C4.91167 -0.126632 4.09544 -0.126632 3.59238 0.382827L2.97271 1.01037L8.87119 6.98386L2.95605 12.9742L3.59238 13.6186C4.09544 14.1281 4.91167 14.1281 5.41473 13.6186L11.5098 7.4444C11.753 7.19811 11.753 6.79998 11.5098 6.55538Z" fill="#EA1D76"/>
<path d="M5.96432 6.984L1.54504 2.50684L0.943702 3.11582C0.440641 3.62528 0.440641 4.45189 0.943702 4.95966L2.95595 6.99918L0.943702 9.03871C0.440641 9.54817 0.440641 10.3748 0.943702 10.8842L1.52839 11.478L5.96432 6.984Z" fill="#EA1D76"/>
<path d="M14.4817 4.16C14.4817 2.07492 15.5728 0.951416 17.2918 0.951416C17.9915 0.951416 18.6344 1.12686 19.2358 1.46256L18.7177 2.95045C18.2846 2.74633 17.8932 2.64343 17.5717 2.64343C16.7471 2.64343 16.299 3.13939 16.299 4.07227V4.40798H18.6761V6.01227H16.299V12.4041C16.299 12.5357 16.1941 12.6437 16.0625 12.6437H14.7166C14.5866 12.6437 14.48 12.5374 14.48 12.4041V6.01227H13.2773V4.40798H14.48V4.16H14.4817Z" fill="#0A1F8F"/>
<path d="M20.0605 12.4124V4.63896C20.0605 4.50738 20.1655 4.39941 20.2971 4.39941H21.643C21.773 4.39941 21.8796 4.50569 21.8796 4.63896V12.4107C21.8796 12.5423 21.7746 12.6503 21.643 12.6503H20.2971C20.1672 12.6503 20.0605 12.544 20.0605 12.4124Z" fill="#0A1F8F"/>
<path d="M22.1055 2.49496C22.1055 3.11069 21.6124 3.61003 21.0044 3.61003C20.3964 3.61003 19.9033 3.11069 19.9033 2.49496C19.9033 1.87922 20.3964 1.37988 21.0044 1.37988C21.6124 1.37988 22.1055 1.87922 22.1055 2.49496Z" fill="#0A1F8F"/>
<path d="M59.2793 2.49496C59.2793 3.11069 58.7862 3.61003 58.1782 3.61003C57.5702 3.61003 57.0771 3.11069 57.0771 2.49496C57.0771 1.87922 57.5702 1.37988 58.1782 1.37988C58.7862 1.37988 59.2793 1.87922 59.2793 2.49496Z" fill="#0A1F8F"/>
<path d="M57.2705 12.4074V4.64067C57.2705 4.50909 57.3754 4.40112 57.507 4.40112H58.8513C58.9813 4.40112 59.0862 4.5074 59.0862 4.64067V12.4074C59.0862 12.539 58.9813 12.6469 58.8513 12.6469H57.507C57.3754 12.6469 57.2705 12.5407 57.2705 12.4074Z" fill="#0A1F8F"/>
</g>
<defs>
<clipPath id="clip0_2388_28838">
<rect width="74.8696" height="14" fill="white" transform="translate(0.56543)"/>
</clipPath>
</defs>
</svg>
