<svg width="35" height="30" viewBox="0 0 35 30" fill="none" xmlns="http://www.w3.org/2000/svg">
<path d="M20.4989 8.17361L17.2409 11.29C16.1158 12.366 14.59 12.9704 12.999 12.9704C11.408 12.9704 9.88218 12.366 8.75702 11.29L8.49902 11.0432L15.8925 3.97104C17.8817 2.06869 20.5795 1 23.3924 1C26.2053 1 28.903 2.06869 30.8923 3.97104V3.97104C32.5628 5.56914 33.628 7.65483 33.919 9.89757C34.21 12.1403 33.7102 14.4118 32.4988 16.3521" stroke="#373A3F" stroke-width="2" stroke-miterlimit="10" stroke-linecap="round" stroke-linejoin="round"/>
<path d="M22.3983 12.8602L27.8178 18.0442C28.6614 18.8514 29.1353 19.946 29.1353 21.0874C29.1353 22.2288 28.6614 23.3234 27.8178 24.1306L25.3638 26.478C24.5281 27.2776 23.5358 27.9118 22.4438 28.3445C21.3518 28.7773 20.1814 29 18.9994 29C17.8173 29 16.6469 28.7773 15.5549 28.3445C14.4629 27.9118 13.4707 27.2776 12.6349 26.478L4.10599 18.3196C2.11723 16.4168 1 13.8363 1 11.1456C1 8.45488 2.11723 5.87436 4.10599 3.9715V3.9715C6.06683 2.09061 8.7226 1.02323 11.4994 1" stroke="#373A3F" stroke-width="2" stroke-miterlimit="10" stroke-linecap="round" stroke-linejoin="round"/>
<path d="M27.0855 24.8314L21.249 19.25" stroke="#373A3F" stroke-width="2" stroke-miterlimit="10" stroke-linecap="round" stroke-linejoin="round"/>
<path d="M22.7692 28.2113L17.3242 23.0029" stroke="#373A3F" stroke-width="2" stroke-miterlimit="10" stroke-linecap="round" stroke-linejoin="round"/>
</svg>
