<svg width="20" height="20" viewBox="0 0 20 20" fill="none" xmlns="http://www.w3.org/2000/svg">
<path d="M0.75 10C0.75 4.91275 4.88568 0.75 10 0.75C11.2147 0.75 12.4176 0.989258 13.5398 1.45411C14.6621 1.91897 15.6818 2.60032 16.5407 3.45926C17.3997 4.3182 18.081 5.33792 18.5459 6.46018C19.0107 7.58244 19.25 8.78527 19.25 10C19.25 12.4533 18.2754 14.806 16.5407 16.5407C14.806 18.2754 12.4533 19.25 10 19.25C8.78527 19.25 7.58244 19.0107 6.46018 18.5459C5.33792 18.081 4.3182 17.3997 3.45926 16.5407C1.72455 14.806 0.75 12.4533 0.75 10Z" stroke="#0C1029" stroke-width="1.5"/>
</svg>
