<svg width="24" height="24" viewBox="0 0 24 24" fill="none" xmlns="http://www.w3.org/2000/svg">
<path d="M2.625 12C2.625 6.84396 6.8164 2.625 12 2.625C13.2311 2.625 14.4502 2.86749 15.5877 3.33863C16.7251 3.80977 17.7586 4.50032 18.6291 5.37087C19.4997 6.24142 20.1902 7.27492 20.6614 8.41234C21.1325 9.54977 21.375 10.7689 21.375 12C21.375 14.4864 20.3873 16.871 18.6291 18.6291C16.871 20.3873 14.4864 21.375 12 21.375C10.7689 21.375 9.54977 21.1325 8.41234 20.6614C7.27492 20.1902 6.24142 19.4997 5.37087 18.6291C3.61272 16.871 2.625 14.4864 2.625 12Z" stroke="#0059B3" stroke-width="1.25"/>
<path d="M12 10.5L12 16.5" stroke="#0059B3" stroke-width="1.5"/>
<path d="M11.3438 8.75L12.6562 8.75C12.708 8.75 12.75 8.70803 12.75 8.65625L12.75 7.34375C12.75 7.29197 12.708 7.25 12.6563 7.25L11.3438 7.25C11.292 7.25 11.25 7.29197 11.25 7.34375L11.25 8.65625C11.25 8.70803 11.292 8.75 11.3438 8.75Z" fill="#0059B3"/>
</svg>
