<svg width="49" height="48" viewBox="0 0 49 48" fill="none" xmlns="http://www.w3.org/2000/svg">
<rect x="0.5" width="48" height="48" rx="24" fill="#00A887"/>
<g clip-path="url(#clip0_293_45592)">
<path d="M33.9501 27.2776L27.7781 33.4496C26.9971 34.2306 25.7311 34.2306 24.9501 33.4496L15.0501 23.5496C14.2691 22.7686 14.2691 21.5026 15.0501 20.7216L21.2221 14.5496C22.0031 13.7686 23.2691 13.7686 24.0501 14.5496L33.9491 24.4486C34.7311 25.2306 34.7311 26.4966 33.9501 27.2776Z" stroke="white" stroke-width="2" stroke-miterlimit="10" stroke-linecap="round" stroke-linejoin="round"/>
<path d="M28.3896 27.1816C28.5848 27.3769 28.5848 27.6934 28.3896 27.8887C28.1943 28.084 27.8777 28.084 27.6825 27.8887C27.4872 27.6934 27.4872 27.3769 27.6825 27.1816C27.8777 26.9863 28.1943 26.9863 28.3896 27.1816Z" fill="white" stroke="white" stroke-linecap="round" stroke-linejoin="round"/>
<path d="M29.5 13C32.814 13 35.5 15.686 35.5 19" stroke="white" stroke-width="2" stroke-miterlimit="10" stroke-linecap="round" stroke-linejoin="round"/>
<path d="M19.5 35C16.186 35 13.5 32.314 13.5 29" stroke="white" stroke-width="2" stroke-miterlimit="10" stroke-linecap="round" stroke-linejoin="round"/>
</g>
<defs>
<clipPath id="clip0_293_45592">
<rect width="24" height="24" fill="white" transform="translate(12.5 12)"/>
</clipPath>
</defs>
</svg>
