 
<svg width="89" height="88" viewBox="0 0 89 88" fill="none" xmlns="http://www.w3.org/2000/svg">
<path d="M86.5 44C86.5 52.3068 84.0367 60.4271 79.4217 67.3339C74.8067 74.2408 68.2472 79.6241 60.5727 82.8029C52.8982 85.9818 44.4534 86.8136 36.3062 85.193C28.159 83.5724 20.6753 79.5723 14.8015 73.6985C8.92771 67.8247 4.9276 60.341 3.30702 52.1938C1.68644 44.0466 2.51818 35.6018 5.69706 27.9273C8.87594 20.2528 14.2592 13.6933 21.1661 9.07828C28.0729 4.46326 36.1932 2 44.5 2" stroke="#35CC8F" stroke-opacity="0.15" stroke-width="4"/>
<path d="M2 44C2 32.7283 6.47767 21.9183 14.448 13.948C22.4183 5.97766 33.2283 1.5 44.5 1.5C55.7717 1.5 66.5817 5.97767 74.552 13.948C82.5223 21.9183 87 32.7283 87 44C87 55.2717 82.5223 66.0817 74.552 74.052C66.5817 82.0223 55.7717 86.5 44.5 86.5C33.2283 86.5 22.4183 82.0223 14.448 74.052C6.47767 66.0817 2 55.2717 2 44L2 44Z" stroke="#29AAF2" stroke-width="3"/>
<mask id="mask0_2731_69135" style="mask-type:alpha" maskUnits="userSpaceOnUse" x="25" y="24" width="40" height="40">
<rect x="25" y="24" width="40" height="40" fill="#D9D9D9"/>
</mask>
<g mask="url(#mask0_2731_69135)">
<path d="M32.1788 56.4999C31.337 56.4999 30.6243 56.2083 30.041 55.6249C29.4577 55.0416 29.166 54.329 29.166 53.4871V34.5128C29.166 33.6709 29.4577 32.9583 30.041 32.375C30.6243 31.7917 31.337 31.5 32.1788 31.5H41.3294L44.6627 34.8333H57.8198C58.6617 34.8333 59.3743 35.125 59.9576 35.7083C60.5409 36.2917 60.8326 37.0043 60.8326 37.8462V42.5608C60.433 42.4027 60.0206 42.2996 59.5954 42.2515C59.1702 42.2035 58.7493 42.2051 58.3326 42.2564V37.8462C58.3326 37.7179 58.2792 37.6004 58.1724 37.4935C58.0655 37.3867 57.948 37.3333 57.8198 37.3333H43.6404L40.307 34H32.1788C32.0293 34 31.9064 34.048 31.8102 34.1442C31.7141 34.2404 31.666 34.3633 31.666 34.5128V53.4871C31.666 53.6153 31.7194 53.7328 31.8262 53.8397C31.9331 53.9465 32.0506 54 32.1788 54H44.9736L44.8711 54.1025V56.4999H32.1788ZM48.525 59.8333V55.4294L57.573 46.423C57.7803 46.2158 58.0047 46.07 58.2461 45.9855C58.4875 45.9012 58.729 45.859 58.9704 45.859C59.229 45.859 59.4817 45.9081 59.7284 46.0064C59.9752 46.1047 60.1969 46.2521 60.3935 46.4487L61.9351 48.0064C62.1146 48.2136 62.2535 48.438 62.3518 48.6794C62.4501 48.9209 62.4993 49.1623 62.4993 49.4038C62.4993 49.6452 62.4544 49.891 62.3646 50.141C62.2749 50.391 62.1317 50.6196 61.9351 50.8268L52.9288 59.8333H48.525ZM50.5121 57.8461H52.0954L57.5057 52.4102L56.7397 51.6185L55.9641 50.8365L50.5121 56.2628V57.8461ZM56.7397 51.6185L55.9641 50.8365L57.5057 52.4102L56.7397 51.6185Z" fill="#29AAF2"/>
</g>
</svg>
