<svg version="1.1" id="Layer_1" xmlns="http://www.w3.org/2000/svg" xmlns:xlink="http://www.w3.org/1999/xlink" x="0px" y="0px"
	 width="100%" viewBox="0 0 258 118" enable-background="new 0 0 258 118" xml:space="preserve">
<path fill="#FEFDFD" opacity="1.000000" stroke="none" 
	d="
M259.000000,113.000000 
	C259.000000,114.998627 259.000000,116.997261 259.000000,118.996918 
	C173.060364,118.997940 87.120735,118.997940 1.090551,118.997940 
	C1.090551,79.754204 1.090551,40.508125 1.090551,1.131024 
	C86.999847,1.131024 172.999893,1.131024 259.000000,1.131024 
	C259.000000,5.390997 259.000000,9.721371 258.779541,14.633636 
	C258.284180,15.416045 258.097626,15.679178 257.532898,16.055016 
	C227.713943,16.155416 198.361496,16.205727 168.629898,16.160942 
	C166.814789,16.355597 165.378845,16.645342 163.862152,17.191273 
	C163.799896,17.625574 163.818420,17.803690 163.762543,18.389973 
	C163.484833,25.866783 163.281525,32.935429 162.732513,40.002399 
	C161.926987,40.002407 161.467163,40.004082 160.694351,40.041195 
	C159.920029,40.681099 159.458679,41.285568 158.806763,41.978195 
	C158.616196,42.066349 158.211792,42.179424 157.874542,42.315895 
	C157.073929,43.626911 156.192902,44.810726 156.218719,45.974422 
	C156.337296,51.317032 156.709320,56.654022 156.659531,61.953125 
	C155.293594,60.908543 154.258514,59.903858 153.154816,58.917381 
	C153.086197,58.935589 153.069092,58.794651 152.997330,58.611652 
	C152.790466,58.191380 152.595810,58.022923 152.232895,57.894936 
	C152.124176,57.866589 152.153244,57.643761 152.130188,57.290096 
	C150.388763,50.831905 145.395782,52.100578 140.640015,52.043259 
	C139.018494,52.290775 137.704422,52.852348 136.522186,52.648689 
	C132.723816,51.994362 132.682510,53.785816 133.664398,56.543495 
	C133.602631,56.588608 133.527054,56.721619 133.130066,56.506241 
	C131.563049,56.186424 130.393021,56.081978 129.145233,55.670692 
	C129.030609,54.943489 128.993774,54.523129 128.917877,53.745251 
	C125.181190,52.999245 121.486847,52.371704 117.784531,52.320534 
	C115.859756,52.293934 113.920914,53.285244 111.654709,54.008446 
	C111.159363,55.460724 110.997726,56.721291 110.508255,57.988888 
	C109.525002,57.985706 108.869591,57.975502 108.000809,57.800846 
	C107.476959,57.202106 107.166473,56.767818 106.861069,55.946617 
	C105.841057,55.072372 104.815979,54.585045 103.407524,54.028221 
	C100.153221,53.717339 97.282280,53.475956 94.079559,53.079094 
	C90.327240,51.476082 89.419548,53.360542 89.269829,56.215534 
	C89.245491,56.148731 89.232162,56.290306 88.792313,56.197868 
	C87.458740,56.045071 86.565018,55.984707 85.746529,55.622196 
	C85.812325,54.907066 85.802887,54.494083 86.069794,53.901848 
	C86.238075,52.985497 86.130020,52.248394 86.021965,51.511295 
	C85.649841,52.106674 85.277718,52.702053 84.499725,53.243912 
	C82.732918,53.118870 81.371979,53.047344 79.964172,52.655174 
	C79.267380,51.891365 78.617462,51.448196 77.884995,50.633324 
	C77.851151,49.504730 77.899841,48.747845 78.265480,47.947548 
	C78.470390,44.267372 75.476639,45.297791 73.794861,44.479664 
	C72.896347,48.206768 72.071785,51.627117 71.356537,54.594013 
	C67.896645,54.756596 66.577736,49.688343 63.684776,53.929688 
	C62.905006,53.896393 62.460804,53.850349 61.909668,53.439552 
	C56.652744,50.930470 52.067520,52.273403 50.947945,56.512665 
	C49.900452,58.890293 49.001526,60.965725 47.704689,63.038696 
	C46.951874,61.956928 46.573666,60.884636 46.245831,59.797161 
	C44.015045,52.397308 36.723988,50.576851 30.683147,56.087826 
	C29.903202,56.112961 29.454037,56.050293 28.858574,55.652378 
	C25.680796,52.473858 21.742990,51.616692 18.679499,53.913818 
	C16.250694,55.735031 14.437926,59.236431 13.751711,62.304890 
	C12.900331,66.111885 13.383937,70.245750 13.533042,74.229355 
	C13.573054,75.298370 14.493422,76.334427 15.009653,77.385612 
	C15.596606,76.249565 16.613640,75.141495 16.689695,73.972214 
	C16.915865,70.495026 16.350220,66.923988 16.912537,63.525040 
	C17.326675,61.021774 18.420553,57.869171 20.296944,56.551250 
	C22.994734,54.656406 25.994354,56.255619 28.106136,59.394997 
	C28.472475,65.713867 28.758287,71.563271 29.044100,77.412674 
	C29.692896,77.394791 30.341694,77.376915 30.990490,77.359032 
	C31.318615,71.213127 31.646740,65.067230 32.247520,58.692719 
	C34.863094,57.718849 37.657730,55.840496 39.422997,56.544235 
	C41.219616,57.260475 42.517174,60.391499 43.090187,62.699303 
	C43.709660,65.194221 43.182037,67.961700 43.259060,70.607262 
	C43.325935,72.904388 43.538456,75.197258 43.686607,77.492012 
	C44.417236,77.507751 45.147861,77.523483 45.878490,77.539223 
	C46.126789,75.218979 46.439320,72.903244 46.602985,70.577049 
	C46.733067,68.728203 46.887508,67.318977 48.790215,69.927055 
	C52.468594,77.526482 56.762989,79.189812 65.960670,76.953377 
	C69.029167,79.458778 71.698036,81.875961 73.397743,76.098595 
	C73.589111,75.448120 75.322540,75.251312 76.637131,75.018562 
	C78.635704,75.940689 80.338036,76.688377 82.199028,77.689514 
	C83.041718,78.496582 83.725746,79.050217 84.409775,79.603844 
	C84.929855,78.715950 85.449944,77.828056 85.961899,76.620415 
	C85.943245,75.874397 85.932724,75.448135 86.328857,75.017975 
	C87.547554,74.954796 88.359589,74.895500 89.078262,74.881729 
	C88.984894,74.927261 89.158119,74.811867 89.134544,75.154877 
	C90.093849,75.945915 91.076729,76.393951 92.404236,76.900246 
	C93.180969,77.129478 93.613060,77.300446 94.184517,77.620377 
	C94.323875,77.769341 94.701775,77.924934 94.701775,77.924934 
	C94.701775,77.924934 95.110306,77.912933 95.065079,77.947807 
	C95.019859,77.982681 95.075920,77.883171 95.059998,78.246452 
	C96.548820,81.267273 97.831787,81.084175 100.274750,77.715500 
	C101.995270,76.905846 103.430466,76.284676 105.046036,75.965759 
	C107.078117,75.905464 108.929825,75.542900 110.840561,75.559830 
	C111.689743,76.920029 112.479881,77.900734 113.270020,78.881439 
	C114.145073,77.818886 115.653000,76.824608 115.776375,75.680954 
	C116.145157,72.262573 115.372765,68.633568 116.199158,65.379700 
	C116.862106,62.769386 119.207458,60.586365 120.806213,58.213722 
	C122.149742,59.702930 123.479904,61.204662 124.851616,62.667435 
	C125.050575,62.879612 125.448570,62.905144 125.834198,63.474541 
	C125.932457,68.291908 125.950974,72.651779 125.736252,77.235237 
	C127.264473,77.958206 129.025925,78.457581 130.787369,78.956963 
	C130.930954,78.381821 131.074554,77.806686 131.218140,77.231544 
	C130.485092,77.155289 129.752029,77.079033 129.020660,76.628464 
	C129.090897,75.511078 129.159470,74.768013 129.577545,74.071739 
	C131.299194,74.402107 132.671295,74.685677 134.021332,74.984116 
	C133.999268,74.998993 134.029541,74.955070 134.028366,75.333099 
	C135.149185,78.894783 137.389297,78.958183 140.455688,77.841782 
	C142.243927,77.874016 143.619675,77.931351 145.212219,78.249557 
	C147.606293,78.010666 149.783569,77.510910 152.314438,77.114990 
	C153.157013,77.263527 153.645996,77.308220 154.366119,77.570534 
	C156.826263,77.562103 159.055283,77.336044 161.487228,77.201340 
	C162.081573,77.523445 162.472961,77.754196 162.917694,78.386917 
	C163.115570,79.584587 163.260117,80.380287 163.342819,81.628067 
	C163.393616,91.372902 163.506256,100.665680 163.472794,110.295708 
	C164.226349,111.296440 165.126022,111.959915 166.431915,112.713890 
	C168.216888,112.743103 169.595642,112.681816 171.311615,112.719238 
	C172.107941,112.752228 172.567032,112.686501 173.483612,112.714020 
	C202.294083,112.871513 230.647049,112.935760 259.000000,113.000000 
z"/>
<path fill="#65C7D0" opacity="1.000000" stroke="none" 
	d="
M163.618896,109.958450 
	C163.506256,100.665680 163.393616,91.372902 163.516541,81.588821 
	C163.752090,81.097504 164.099625,81.002357 164.302826,80.845963 
	C164.363205,80.131310 164.220383,79.573059 164.066101,78.758698 
	C164.053589,78.331703 164.052551,78.160805 164.424820,77.997360 
	C168.946396,78.662910 173.078964,79.508789 177.253082,79.857796 
	C178.414490,79.954903 179.698883,78.580902 180.969849,77.900925 
	C181.012863,77.920052 180.920288,77.909149 181.310944,77.939636 
	C183.268204,78.166107 184.834793,78.362091 187.071945,78.641960 
	C186.597702,77.106453 186.246109,75.968040 185.999939,74.636284 
	C186.290131,74.205475 186.523010,74.032936 187.171371,73.895584 
	C188.503372,72.572029 189.467957,71.278206 191.000122,69.223106 
	C191.335495,71.290359 191.131500,73.062874 191.766144,73.445915 
	C195.475952,75.685020 194.101395,78.213715 192.718964,81.015373 
	C192.167786,82.132408 191.998352,83.561409 192.072281,84.823959 
	C192.130829,85.824066 192.769333,87.573334 193.249832,87.607941 
	C194.363297,87.688141 196.126938,87.267525 196.588470,86.457924 
	C199.151077,81.962654 202.662384,77.756203 202.431366,72.026764 
	C204.597305,72.328568 206.371521,72.645401 208.354095,73.078094 
	C208.802765,73.421974 208.947617,73.699753 209.098282,74.241455 
	C209.389893,74.723175 209.641907,74.905579 209.979935,74.998169 
	C210.004303,74.993523 209.998016,75.042740 210.111237,75.257942 
	C210.434998,75.740562 210.707352,75.906715 211.018799,75.983696 
	C210.996109,75.995773 211.023422,75.952003 211.176971,76.210716 
	C211.889709,76.642250 212.448868,76.815063 213.004028,76.993942 
	C213.000000,77.000000 213.008835,76.988068 213.193756,77.248741 
	C213.990295,77.641731 214.601913,77.774040 215.410034,77.897247 
	C215.606552,77.888153 215.989136,77.980087 216.054169,78.339172 
	C219.181442,80.117195 221.879761,79.942619 223.948700,76.916000 
	C223.970917,76.916878 223.937256,76.944206 224.168137,76.867271 
	C224.691467,76.618149 224.893845,76.371918 225.170898,75.801132 
	C225.885788,75.358589 226.435913,75.166573 227.111191,75.207169 
	C227.535690,75.612762 227.835037,75.785728 228.425079,76.111275 
	C230.140030,76.914322 231.736786,79.710899 232.849121,75.518814 
	C232.855881,73.703918 232.818802,72.305374 233.147339,70.871605 
	C234.764221,72.121338 235.928375,73.507790 237.284042,74.671074 
	C240.565506,77.486900 243.844177,80.527679 248.951965,77.855667 
	C249.472946,77.595856 249.730377,77.368156 250.203278,77.070625 
	C250.418747,77.000793 250.868698,76.948357 251.200409,76.944427 
	C251.998383,76.543579 252.464645,76.146675 253.031174,75.561142 
	C253.324890,75.147942 253.566574,75.004898 254.196777,74.927414 
	C255.004807,74.256920 255.472565,73.602386 255.936462,72.936783 
	C255.932602,72.925697 255.910065,72.901665 256.243896,72.891739 
	C257.385162,71.921211 258.192596,70.960609 259.000000,70.000000 
	C259.000000,84.020897 259.000000,98.041786 259.000000,112.531342 
	C230.647049,112.935760 202.294083,112.871513 173.468521,112.409584 
	C172.563095,111.487762 172.130295,110.963623 171.697479,110.439484 
	C171.456451,111.166496 171.215424,111.893509 170.974380,112.620522 
	C169.595642,112.681816 168.216888,112.743103 166.417786,112.406334 
	C165.204590,111.324997 164.411728,110.641724 163.618896,109.958450 
z"/>
<path fill="#65C7D0" opacity="1.000000" stroke="none" 
	d="
M259.000000,18.000000 
	C259.000000,28.687561 259.000000,39.375122 258.658447,50.480400 
	C257.429321,49.955647 256.494263,49.053024 255.663773,48.062691 
	C253.736908,45.764973 252.011322,43.033947 249.641586,47.842037 
	C249.239197,48.658424 246.882248,49.210999 245.762589,48.849644 
	C241.576904,47.498772 240.719162,49.462040 240.666107,52.990341 
	C239.888336,52.997299 239.443863,52.998066 238.999619,52.540047 
	C238.999847,48.531761 238.999847,44.982262 238.999847,41.091587 
	C236.716721,41.964005 235.361374,42.481899 233.766754,42.996567 
	C233.527451,42.993340 233.048843,42.989910 232.986206,42.812275 
	C232.923553,42.634640 232.888733,42.259537 232.920380,41.889984 
	C232.501434,40.820732 232.050858,40.121037 231.600281,39.421341 
	C231.100388,40.356819 230.600494,41.292297 230.078766,42.524311 
	C229.985672,43.210697 229.914368,43.600544 229.612137,44.226837 
	C228.919006,45.641895 228.456833,46.820518 227.628876,47.957371 
	C222.058884,45.101894 218.743042,46.027523 215.471985,51.040257 
	C213.002350,50.323776 209.369751,48.280258 208.410782,49.157959 
	C203.485580,53.665684 203.281342,49.300587 201.943130,44.942421 
	C197.807861,46.912704 194.092514,48.682915 190.334335,50.473530 
	C188.916534,49.387089 187.413635,48.235435 185.354202,46.657318 
	C184.782013,48.913773 184.390396,50.458164 183.588348,51.993393 
	C179.453598,51.990650 175.729233,51.997074 171.995422,51.632202 
	C169.696793,48.212639 170.164093,44.823528 170.003204,41.231205 
	C169.655167,33.460308 168.076126,25.744539 167.469223,18.004120 
	C198.291901,18.001343 228.645950,18.000671 259.000000,18.000000 
M235.498367,36.609928 
	C237.638214,35.426552 239.778061,34.243172 241.917923,33.059795 
	C241.847534,32.547501 241.777145,32.035206 241.706772,31.522911 
	C239.465088,31.260487 237.223419,30.998062 234.981735,30.735638 
	C234.949768,32.559155 234.917801,34.382668 235.498367,36.609928 
M227.506805,31.279234 
	C224.624405,28.583782 223.263657,30.861197 222.626663,33.154873 
	C222.347458,34.160259 223.471664,36.480671 224.351105,36.712044 
	C227.182724,37.456997 228.100189,35.538830 227.960861,32.972610 
	C227.943054,32.644741 227.878677,32.319405 227.506805,31.279234 
M173.026917,43.820061 
	C173.643784,44.019978 174.260635,44.219891 174.877502,44.419804 
	C174.877502,40.508007 174.877502,36.596214 174.877502,32.684418 
	C174.253098,32.680019 173.628708,32.675621 173.004303,32.671223 
	C173.004303,36.106510 173.004303,39.541798 173.026917,43.820061 
z"/>
<path fill="#73C6CC" opacity="1.000000" stroke="none" 
	d="
M259.000000,17.750000 
	C228.645950,18.000671 198.291901,18.001343 167.074982,18.002312 
	C165.420380,17.995672 164.628662,17.988739 163.836945,17.981806 
	C163.818420,17.803690 163.799896,17.625574 164.246567,17.214767 
	C166.144180,16.740063 167.576630,16.498051 169.009064,16.256037 
	C198.361496,16.205727 227.713943,16.155416 257.686462,16.240746 
	C258.669281,16.437574 258.900421,16.645445 259.000000,17.000000 
	C259.000000,17.000000 259.000000,17.500000 259.000000,17.750000 
z"/>
<path fill="#6FBFC6" opacity="1.000000" stroke="none" 
	d="
M259.000000,69.536819 
	C258.192596,70.960609 257.385162,71.921211 256.287476,72.564270 
	C256.062836,71.341125 256.128448,70.435516 256.194092,69.529907 
	C255.428833,69.627487 254.484268,69.476845 253.935089,69.873566 
	C252.738327,70.738098 251.884064,72.504456 250.637192,72.786888 
	C247.622055,73.469841 244.193695,74.383522 241.446747,73.535828 
	C239.304840,72.874855 237.937622,69.703400 236.226151,67.647575 
	C236.596436,67.141830 236.966705,66.636093 237.336990,66.130348 
	C244.040329,66.130348 250.743652,66.130348 258.706665,66.130348 
	C257.497467,62.506283 256.598724,59.812641 256.111572,57.085762 
	C257.348755,57.035019 258.174377,57.017509 259.000000,57.000000 
	C259.000000,61.024544 259.000000,65.049088 259.000000,69.536819 
z"/>
<path fill="#65C7D0" opacity="1.000000" stroke="none" 
	d="
M259.000000,56.571537 
	C258.174377,57.017509 257.348755,57.035019 255.862244,56.924599 
	C253.766449,55.689331 252.331543,54.581985 250.756241,53.109711 
	C248.756226,52.780312 246.896591,52.815838 244.694656,52.914200 
	C243.658844,53.026505 242.965363,53.075977 241.953766,53.079674 
	C241.423569,53.017319 241.211472,53.000732 240.999390,52.984146 
	C240.719162,49.462040 241.576904,47.498772 245.762589,48.849644 
	C246.882248,49.210999 249.239197,48.658424 249.641586,47.842037 
	C252.011322,43.033947 253.736908,45.764973 255.663773,48.062691 
	C256.494263,49.053024 257.429321,49.955647 258.658447,50.949059 
	C259.000000,52.714359 259.000000,54.428715 259.000000,56.571537 
z"/>
<path fill="#F0FFFF" opacity="1.000000" stroke="none" 
	d="
M259.000000,16.666668 
	C258.900421,16.645445 258.669281,16.437574 258.152954,16.190659 
	C258.097626,15.679178 258.284180,15.416045 258.779541,15.107763 
	C259.000000,15.444445 259.000000,15.888889 259.000000,16.666668 
z"/>
<path fill="#65C7D0" opacity="1.000000" stroke="none" 
	d="
M163.762543,18.389973 
	C164.628662,17.988739 165.420380,17.995672 166.606354,18.004414 
	C168.076126,25.744539 169.655167,33.460308 170.003204,41.231205 
	C170.164093,44.823528 169.696793,48.212639 171.991119,51.964088 
	C171.987350,53.109863 171.978409,53.552448 171.768524,54.156685 
	C171.121658,54.571362 170.675735,54.824394 169.843872,55.058540 
	C167.507523,55.676243 165.557129,56.312832 163.514160,56.636166 
	C163.491577,55.898201 163.561584,55.473495 163.909637,55.021790 
	C164.659546,54.649754 165.131424,54.304710 165.603302,53.959671 
	C164.939468,53.624771 164.275650,53.289871 163.482895,52.514114 
	C163.262054,48.050198 163.170135,44.027134 163.078201,40.004070 
	C163.281525,32.935429 163.484833,25.866783 163.762543,18.389973 
z"/>
<path fill="#D24141" opacity="1.000000" stroke="none" 
	d="
M65.626968,76.791626 
	C56.762989,79.189812 52.468594,77.526482 48.842770,69.482605 
	C48.635971,66.812218 48.369286,64.926689 48.102600,63.041153 
	C49.001526,60.965725 49.900452,58.890293 51.297207,56.349201 
	C55.202225,55.190464 58.609409,54.497387 62.016598,53.804306 
	C62.460804,53.850349 62.905006,53.896393 63.836411,54.239616 
	C72.030548,59.127316 74.460434,67.286354 71.330139,76.192787 
	C69.060471,76.431107 67.343719,76.611366 65.626968,76.791626 
M60.388813,74.950958 
	C67.055351,73.502792 69.468353,70.706619 68.968369,65.009018 
	C68.505020,59.728867 65.353630,56.312599 60.741066,56.090187 
	C55.344215,55.829956 51.651466,58.770115 51.008907,63.838924 
	C50.252922,69.802437 53.267712,73.705788 60.388813,74.950958 
z"/>
<path fill="#D24544" opacity="1.000000" stroke="none" 
	d="
M94.411346,53.234573 
	C97.282280,53.475956 100.153221,53.717339 103.589218,54.292725 
	C105.054855,55.195667 105.955421,55.764599 106.855988,56.333534 
	C107.166473,56.767818 107.476959,57.202106 108.063828,58.113541 
	C109.226303,59.392406 110.112396,60.194126 111.020691,61.226276 
	C111.042900,61.456707 111.026459,61.919415 110.659744,62.035099 
	C110.178619,63.407124 110.064217,64.663460 109.970490,65.948395 
	C109.991173,65.976982 109.929108,65.943558 109.517960,65.973923 
	C107.731750,65.963295 106.356689,65.922287 104.996651,65.544121 
	C105.007515,64.756874 105.003349,64.306793 105.302155,63.727283 
	C105.773048,62.532146 106.405769,60.758369 106.034233,60.514477 
	C103.421989,58.799728 100.709061,56.443760 97.825005,56.123528 
	C93.477448,55.640789 90.703270,58.761036 88.926422,63.070129 
	C90.203873,63.398006 91.117493,63.632500 91.886002,64.120323 
	C91.166977,64.881203 90.593071,65.388756 89.773026,66.022362 
	C89.369713,66.450714 89.212547,66.753021 89.002296,67.421249 
	C91.542175,75.299080 97.915985,77.098236 103.931229,72.092598 
	C105.119652,71.103645 106.593864,70.458145 107.936272,69.654259 
	C108.198692,69.998833 108.461113,70.343407 108.723534,70.687981 
	C107.437576,72.346489 106.151619,74.004990 104.865662,75.663498 
	C103.430466,76.284676 101.995270,76.905846 99.866188,77.669250 
	C97.806839,77.835381 96.441383,77.859276 95.075920,77.883163 
	C95.075920,77.883171 95.019859,77.982681 94.945389,77.769737 
	C94.610504,77.384850 94.335251,77.356392 94.045158,77.471420 
	C93.613060,77.300446 93.180969,77.129478 92.246140,76.640686 
	C90.881653,75.819199 90.019890,75.315529 89.158119,74.811859 
	C89.158119,74.811867 88.984894,74.927261 88.940231,74.550110 
	C84.419891,67.683510 84.527199,61.982441 89.232162,56.290306 
	C89.232162,56.290306 89.245491,56.148731 89.576981,56.106491 
	C91.409439,55.121025 92.910393,54.177799 94.411346,53.234573 
z"/>
<path fill="#D03838" opacity="1.000000" stroke="none" 
	d="
M154.134979,77.352905 
	C153.645996,77.308220 153.157013,77.263527 152.293579,76.747711 
	C148.958862,74.209099 146.977188,76.099113 144.995407,77.988678 
	C143.619675,77.931351 142.243927,77.874016 140.215942,77.608887 
	C137.718979,76.585747 135.874252,75.770409 134.029541,74.955070 
	C134.029541,74.955070 133.999268,74.998993 133.885681,74.657440 
	C129.000824,68.516449 128.892136,62.652061 133.527054,56.721619 
	C133.527054,56.721619 133.602631,56.588608 133.963715,56.400028 
	C136.543106,55.403629 138.761414,54.595810 141.395309,53.848976 
	C145.258347,55.154560 148.705795,56.399158 152.153244,57.643761 
	C152.153244,57.643761 152.124176,57.866589 152.190125,58.133789 
	C152.423355,58.746254 152.694366,58.877476 153.069092,58.794651 
	C153.069092,58.794651 153.086197,58.935589 153.208679,59.341286 
	C153.599106,65.615623 153.867050,71.484268 154.134979,77.352905 
M149.478317,71.917175 
	C153.750748,68.273758 152.069962,63.971016 150.233887,60.164433 
	C148.220947,55.991173 144.084610,55.202885 139.941788,56.321655 
	C135.729630,57.459152 133.399292,60.953709 134.014328,65.003868 
	C134.484253,68.098419 136.209183,71.668114 138.543854,73.651794 
	C141.741150,76.368431 145.720444,75.288864 149.478317,71.917175 
z"/>
<path fill="#FEECE8" opacity="1.000000" stroke="none" 
	d="
M88.792313,56.197868 
	C84.527199,61.982441 84.419891,67.683510 89.033600,74.504585 
	C88.359589,74.895500 87.547554,74.954796 85.952065,74.948418 
	C77.799316,74.879601 76.001526,70.887299 78.497612,57.604675 
	C80.992493,57.020287 83.331886,56.472313 85.671288,55.924347 
	C86.565018,55.984707 87.458740,56.045071 88.792313,56.197868 
z"/>
<path fill="#FEECE8" opacity="1.000000" stroke="none" 
	d="
M65.960670,76.953377 
	C67.343719,76.611366 69.060471,76.431107 71.330139,76.192787 
	C74.460434,67.286354 72.030548,59.127316 64.171974,54.226868 
	C66.577736,49.688343 67.896645,54.756596 71.356537,54.594013 
	C72.071785,51.627117 72.896347,48.206768 73.794861,44.479664 
	C75.476639,45.297791 78.470390,44.267372 77.992615,47.652626 
	C74.616844,46.147556 74.784660,48.163910 74.769814,49.839088 
	C74.736107,53.641357 74.569130,57.457577 74.824005,61.243374 
	C75.130142,65.790390 75.818192,70.311691 76.340881,74.844131 
	C75.322540,75.251312 73.589111,75.448120 73.397743,76.098595 
	C71.698036,81.875961 69.029167,79.458778 65.960670,76.953377 
z"/>
<path fill="#FEF1EF" opacity="1.000000" stroke="none" 
	d="
M105.046036,75.965759 
	C106.151619,74.004990 107.437576,72.346489 108.723534,70.687981 
	C108.461113,70.343407 108.198692,69.998833 107.936272,69.654259 
	C106.593864,70.458145 105.119652,71.103645 103.931229,72.092598 
	C97.915985,77.098236 91.542175,75.299080 89.466751,67.410942 
	C92.132050,67.020126 94.285973,67.104317 96.426254,66.970467 
	C100.931000,66.688751 105.428581,66.292686 109.929108,65.943558 
	C109.929108,65.943558 109.991173,65.976982 110.238602,65.973564 
	C110.665154,65.983665 110.844292,65.997185 111.001114,66.459747 
	C110.981995,69.608284 110.985176,72.307762 110.938461,75.052689 
	C110.888573,75.098137 110.781525,75.180336 110.781525,75.180336 
	C108.929825,75.542900 107.078117,75.905464 105.046036,75.965759 
z"/>
<path fill="#D64E4C" opacity="1.000000" stroke="none" 
	d="
M47.704689,63.038696 
	C48.369286,64.926689 48.635971,66.812218 48.850098,69.142204 
	C46.887508,67.318977 46.733067,68.728203 46.602985,70.577049 
	C46.439320,72.903244 46.126789,75.218979 45.878490,77.539223 
	C45.147861,77.523483 44.417236,77.507751 43.686607,77.492012 
	C43.538456,75.197258 43.325935,72.904388 43.259060,70.607262 
	C43.182037,67.961700 43.709660,65.194221 43.090187,62.699303 
	C42.517174,60.391499 41.219616,57.260475 39.422997,56.544235 
	C37.657730,55.840496 34.863094,57.718849 32.235790,58.361195 
	C31.638916,57.505531 31.326422,56.752773 31.013927,56.000019 
	C36.723988,50.576851 44.015045,52.397308 46.245831,59.797161 
	C46.573666,60.884636 46.951874,61.956928 47.704689,63.038696 
z"/>
<path fill="#D7494A" opacity="1.000000" stroke="none" 
	d="
M76.637123,75.018570 
	C75.818192,70.311691 75.130142,65.790390 74.824005,61.243374 
	C74.569130,57.457577 74.736107,53.641357 74.769814,49.839088 
	C74.784660,48.163910 74.616844,46.147556 77.675674,47.696037 
	C77.899841,48.747845 77.851151,49.504730 77.814690,51.008301 
	C78.554962,52.161930 79.283005,52.568874 80.011047,52.975822 
	C81.371979,53.047344 82.732918,53.118870 84.551590,53.459827 
	C85.209419,53.983147 85.470787,54.100430 85.793442,54.081104 
	C85.802887,54.494083 85.812325,54.907066 85.746529,55.622192 
	C83.331886,56.472313 80.992493,57.020287 78.497612,57.604675 
	C76.001526,70.887299 77.799316,74.879601 85.545403,74.952309 
	C85.932724,75.448135 85.943245,75.874397 85.577011,76.721725 
	C84.146950,77.240540 83.093658,77.338303 82.040367,77.436066 
	C80.338036,76.688377 78.635704,75.940689 76.637123,75.018570 
z"/>
<path fill="#D44E4C" opacity="1.000000" stroke="none" 
	d="
M28.025608,58.925522 
	C25.994354,56.255619 22.994734,54.656406 20.296944,56.551250 
	C18.420553,57.869171 17.326675,61.021774 16.912537,63.525040 
	C16.350220,66.923988 16.915865,70.495026 16.689695,73.972214 
	C16.613640,75.141495 15.596606,76.249565 15.009653,77.385612 
	C14.493422,76.334427 13.573054,75.298370 13.533042,74.229355 
	C13.383937,70.245750 12.900331,66.111885 13.751711,62.304890 
	C14.437926,59.236431 16.250694,55.735031 18.679499,53.913818 
	C21.742990,51.616692 25.680796,52.473858 28.593222,55.847473 
	C28.324648,57.227047 28.175129,58.076286 28.025608,58.925522 
z"/>
<path fill="#FEF1EF" opacity="1.000000" stroke="none" 
	d="
M111.988426,53.816742 
	C113.920914,53.285244 115.859756,52.293934 117.784531,52.320534 
	C121.486847,52.371704 125.181190,52.999245 128.494431,53.705734 
	C127.403603,54.791302 126.224297,55.481445 126.083466,56.341621 
	C125.725800,58.526157 125.833237,60.786846 125.754456,63.017044 
	C125.448570,62.905144 125.050575,62.879612 124.851616,62.667435 
	C123.479904,61.204662 122.149742,59.702930 120.806213,58.213722 
	C119.207458,60.586365 116.862106,62.769386 116.199158,65.379700 
	C115.372765,68.633568 116.145157,72.262573 115.776375,75.680954 
	C115.653000,76.824608 114.145073,77.818886 113.270020,78.881439 
	C112.479881,77.900734 111.689743,76.920029 110.840561,75.559830 
	C110.781525,75.180336 110.888573,75.098137 111.242569,75.311829 
	C111.964500,76.017975 112.332443,76.510429 112.700394,77.002884 
	C113.138435,76.315407 113.926575,75.641968 113.954803,74.938057 
	C114.087448,71.630531 114.073914,68.313133 113.994736,65.002075 
	C113.883682,60.358109 116.397629,57.751343 120.494881,56.274384 
	C121.382072,55.954571 122.245323,55.568352 123.804474,54.934128 
	C119.379349,52.568077 115.381783,57.246239 111.988426,53.816742 
z"/>
<path fill="#C73232" opacity="1.000000" stroke="none" 
	d="
M111.654709,54.008446 
	C115.381783,57.246239 119.379349,52.568077 123.804474,54.934128 
	C122.245323,55.568352 121.382072,55.954571 120.494881,56.274384 
	C116.397629,57.751343 113.883682,60.358109 113.994736,65.002075 
	C114.073914,68.313133 114.087448,71.630531 113.954803,74.938057 
	C113.926575,75.641968 113.138435,76.315407 112.700394,77.002884 
	C112.332443,76.510429 111.964500,76.017975 111.292458,75.266388 
	C110.985176,72.307762 110.981995,69.608284 111.274078,66.285980 
	C111.388390,64.415245 111.207420,63.167328 111.026459,61.919415 
	C111.026459,61.919415 111.042900,61.456707 111.021835,60.847672 
	C110.945877,59.486378 110.890984,58.734119 110.836098,57.981861 
	C110.997726,56.721291 111.159363,55.460724 111.654709,54.008446 
z"/>
<path fill="#D23132" opacity="1.000000" stroke="none" 
	d="
M28.106136,59.394997 
	C28.175129,58.076286 28.324648,57.227047 28.739521,56.182716 
	C29.454037,56.050293 29.903202,56.112961 30.683147,56.087826 
	C31.326422,56.752773 31.638916,57.505531 31.963139,58.589806 
	C31.646740,65.067230 31.318615,71.213127 30.990490,77.359032 
	C30.341694,77.376915 29.692896,77.394791 29.044100,77.412674 
	C28.758287,71.563271 28.472475,65.713867 28.106136,59.394997 
z"/>
<path fill="#FDE3DD" opacity="1.000000" stroke="none" 
	d="
M154.366119,77.570534 
	C153.867050,71.484268 153.599106,65.615623 153.277298,59.323082 
	C154.258514,59.903858 155.293594,60.908543 156.748596,62.159763 
	C157.321289,62.675125 157.535095,62.880394 157.869843,63.394142 
	C157.886856,64.516579 157.843964,65.266991 157.613708,66.173325 
	C157.548950,66.880196 157.671555,67.431137 157.878571,68.238037 
	C158.037766,68.657379 158.112534,68.820755 158.126862,69.319000 
	C158.107010,70.103920 158.147614,70.553978 158.076569,71.249542 
	C157.908722,71.665825 157.852478,71.836601 157.659760,72.103378 
	C157.340683,72.537987 157.431946,72.802345 157.882660,73.247742 
	C158.046387,73.664642 158.124512,73.826256 158.136780,74.319443 
	C158.101212,75.096954 158.131546,75.542900 158.141663,76.263580 
	C158.422943,76.677597 158.724411,76.816872 159.271179,77.026093 
	C159.678848,77.045509 159.841232,76.995003 160.244339,76.998718 
	C160.485077,77.052956 160.974792,76.991585 161.061127,76.997757 
	C161.147476,77.003929 161.284286,77.109993 161.284286,77.109993 
	C159.055283,77.336044 156.826263,77.562103 154.366119,77.570534 
z"/>
<path fill="#D14341" opacity="1.000000" stroke="none" 
	d="
M125.834198,63.474541 
	C125.833237,60.786846 125.725800,58.526157 126.083466,56.341621 
	C126.224297,55.481445 127.403603,54.791302 128.533478,54.063248 
	C128.993774,54.523129 129.030609,54.943489 129.056305,56.132996 
	C129.106110,62.609745 129.167068,68.317345 129.228027,74.024948 
	C129.159470,74.768013 129.090897,75.511078 128.643433,76.716064 
	C127.499535,77.122536 126.734520,77.067093 125.969498,77.011650 
	C125.950974,72.651779 125.932457,68.291908 125.834198,63.474541 
z"/>
<path fill="#FEF1EF" opacity="1.000000" stroke="none" 
	d="
M129.577545,74.071739 
	C129.167068,68.317345 129.106110,62.609745 129.134079,56.439838 
	C130.393021,56.081978 131.563049,56.186424 133.130066,56.506241 
	C128.892136,62.652061 129.000824,68.516449 133.907745,74.642570 
	C132.671295,74.685677 131.299194,74.402107 129.577545,74.071739 
z"/>
<path fill="#F0FFFF" opacity="1.000000" stroke="none" 
	d="
M163.631592,55.048786 
	C163.561584,55.473495 163.491577,55.898201 163.357956,57.059219 
	C163.304520,60.151978 163.314682,62.508427 163.218811,65.285225 
	C163.186569,66.849823 163.260345,67.994064 163.285599,69.575752 
	C163.284409,72.668953 163.331726,75.324707 163.250305,77.974464 
	C163.121582,77.968460 162.864365,77.984947 162.864365,77.984947 
	C162.472961,77.754196 162.081573,77.523445 161.487228,77.201340 
	C161.284286,77.109993 161.147476,77.003929 161.093246,76.661346 
	C161.095291,75.872871 161.151581,75.426987 161.457520,74.654648 
	C161.806381,67.266586 162.011429,60.204178 161.958755,53.143688 
	C161.933563,49.770126 161.419266,46.400208 161.029922,42.849640 
	C160.933334,42.670635 160.876511,42.267818 160.917923,41.891991 
	C160.975327,41.012691 160.991318,40.509228 161.007324,40.005760 
	C161.467163,40.004082 161.926987,40.002407 162.732513,40.002399 
	C163.170135,44.027134 163.262054,48.050198 163.347885,52.856133 
	C163.438400,54.108929 163.534988,54.578857 163.631592,55.048786 
z"/>
<path fill="#FDE3DD" opacity="1.000000" stroke="none" 
	d="
M152.130188,57.290096 
	C148.705795,56.399158 145.258347,55.154560 141.399933,53.552097 
	C140.995239,52.798492 141.001526,52.402744 141.007812,52.007000 
	C145.395782,52.100578 150.388763,50.831905 152.130188,57.290096 
z"/>
<path fill="#FFD1CF" opacity="1.000000" stroke="none" 
	d="
M157.809921,63.022114 
	C157.535095,62.880394 157.321289,62.675125 157.079453,62.199661 
	C156.709320,56.654022 156.337296,51.317032 156.218719,45.974422 
	C156.192902,44.810726 157.073929,43.626911 157.878082,42.521641 
	C158.218887,42.590916 158.285599,42.998077 158.173767,43.456001 
	C158.114532,48.603157 158.167145,53.292389 158.164780,58.382393 
	C158.152023,59.858849 158.194244,60.934540 158.126312,62.261719 
	C157.947418,62.682846 157.878662,62.852478 157.809921,63.022114 
z"/>
<path fill="#FEECE8" opacity="1.000000" stroke="none" 
	d="
M61.909668,53.439552 
	C58.609409,54.497387 55.202225,55.190464 51.445778,56.047005 
	C52.067520,52.273403 56.652744,50.930470 61.909668,53.439552 
z"/>
<path fill="#FEF1EF" opacity="1.000000" stroke="none" 
	d="
M140.640015,52.043259 
	C141.001526,52.402744 140.995239,52.798492 140.984344,53.491112 
	C138.761414,54.595810 136.543106,55.403629 134.025482,56.354916 
	C132.682510,53.785816 132.723816,51.994362 136.522186,52.648689 
	C137.704422,52.852348 139.018494,52.290775 140.640015,52.043259 
z"/>
<path fill="#E45F61" opacity="1.000000" stroke="none" 
	d="
M158.285599,42.998077 
	C158.285599,42.998077 158.218887,42.590916 158.215332,42.385170 
	C158.211792,42.179424 158.616196,42.066349 159.114868,42.064461 
	C160.034531,42.130989 160.455521,42.199406 160.876511,42.267818 
	C160.876511,42.267818 160.933334,42.670635 160.979401,43.309944 
	C160.919342,48.330494 160.813202,52.711731 160.482697,56.744247 
	C159.891159,51.972095 159.524002,47.548672 158.939636,43.089325 
	C158.722427,43.053402 158.285599,42.998077 158.285599,42.998077 
z"/>
<path fill="#FDE3DD" opacity="1.000000" stroke="none" 
	d="
M145.212219,78.249557 
	C146.977188,76.099113 148.958862,74.209099 151.940002,76.643867 
	C149.783569,77.510910 147.606293,78.010666 145.212219,78.249557 
z"/>
<path fill="#FEF1EF" opacity="1.000000" stroke="none" 
	d="
M134.028366,75.333099 
	C135.874252,75.770409 137.718979,76.585747 139.803436,77.633987 
	C137.389297,78.958183 135.149185,78.894783 134.028366,75.333099 
z"/>
<path fill="#FEF1EF" opacity="1.000000" stroke="none" 
	d="
M125.736259,77.235237 
	C126.734520,77.067093 127.499535,77.122536 128.641769,77.090378 
	C129.752029,77.079033 130.485092,77.155289 131.218140,77.231544 
	C131.074554,77.806686 130.930954,78.381821 130.787369,78.956963 
	C129.025925,78.457581 127.264473,77.958206 125.736259,77.235237 
z"/>
<path fill="#FEECE8" opacity="1.000000" stroke="none" 
	d="
M95.059998,78.246445 
	C96.441383,77.859276 97.806839,77.835381 99.580864,77.857727 
	C97.831787,81.084175 96.548820,81.267273 95.059998,78.246445 
z"/>
<path fill="#FEECE8" opacity="1.000000" stroke="none" 
	d="
M94.079559,53.079094 
	C92.910393,54.177799 91.409439,55.121025 89.601318,56.173294 
	C89.419548,53.360542 90.327240,51.476082 94.079559,53.079094 
z"/>
<path fill="#FEECE8" opacity="1.000000" stroke="none" 
	d="
M82.199028,77.689514 
	C83.093658,77.338303 84.146950,77.240540 85.585136,77.041473 
	C85.449944,77.828056 84.929855,78.715950 84.409775,79.603844 
	C83.725746,79.050217 83.041718,78.496582 82.199028,77.689514 
z"/>
<path fill="#73C6CC" opacity="1.000000" stroke="none" 
	d="
M163.472778,110.295708 
	C164.411728,110.641724 165.204590,111.324997 166.011566,112.315826 
	C165.126022,111.959915 164.226349,111.296440 163.472778,110.295708 
z"/>
<path fill="#FEECE8" opacity="1.000000" stroke="none" 
	d="
M89.134544,75.154877 
	C90.019890,75.315529 90.881653,75.819199 91.901505,76.582428 
	C91.076729,76.393951 90.093849,75.945915 89.134544,75.154877 
z"/>
<path fill="#73C6CC" opacity="1.000000" stroke="none" 
	d="
M171.311615,112.719238 
	C171.215424,111.893509 171.456451,111.166496 171.697479,110.439484 
	C172.130295,110.963623 172.563095,111.487762 173.011017,112.316338 
	C172.567032,112.686501 172.107941,112.752228 171.311615,112.719238 
z"/>
<path fill="#FEECE8" opacity="1.000000" stroke="none" 
	d="
M86.069794,53.901848 
	C85.470787,54.100430 85.209419,53.983147 84.957466,53.513344 
	C85.277718,52.702053 85.649841,52.106674 86.021965,51.511295 
	C86.130020,52.248394 86.238075,52.985497 86.069794,53.901848 
z"/>
<path fill="#FEECE8" opacity="1.000000" stroke="none" 
	d="
M110.508255,57.988888 
	C110.890984,58.734119 110.945877,59.486378 110.999619,60.617241 
	C110.112396,60.194126 109.226303,59.392406 108.277206,58.277992 
	C108.869591,57.975502 109.525002,57.985706 110.508255,57.988888 
z"/>
<path fill="#9EDCE2" opacity="1.000000" stroke="none" 
	d="
M168.629898,16.160942 
	C167.576630,16.498051 166.144180,16.740063 164.327332,16.958580 
	C165.378845,16.645342 166.814789,16.355597 168.629898,16.160942 
z"/>
<path fill="#FEECE8" opacity="1.000000" stroke="none" 
	d="
M106.861069,55.946613 
	C105.955421,55.764599 105.054855,55.195667 103.972595,54.362228 
	C104.815979,54.585045 105.841057,55.072372 106.861069,55.946613 
z"/>
<path fill="#FEECE8" opacity="1.000000" stroke="none" 
	d="
M79.964172,52.655178 
	C79.283005,52.568874 78.554962,52.161930 77.897232,51.380005 
	C78.617462,51.448196 79.267380,51.891365 79.964172,52.655178 
z"/>
<path fill="#FFEFEE" opacity="1.000000" stroke="none" 
	d="
M160.917923,41.891991 
	C160.455521,42.199406 160.034531,42.130989 159.305420,41.976307 
	C159.458679,41.285568 159.920029,40.681099 160.694351,40.041195 
	C160.991318,40.509228 160.975327,41.012691 160.917923,41.891991 
z"/>
<path fill="#9EDCE2" opacity="1.000000" stroke="none" 
	d="
M164.099625,81.002357 
	C164.099625,81.002357 163.752090,81.097504 163.578369,81.136749 
	C163.260117,80.380287 163.115570,79.584587 162.917694,78.386917 
	C162.864365,77.984947 163.121582,77.968460 163.417786,77.964569 
	C163.713989,77.960686 164.051514,77.989906 164.051514,77.989906 
	C164.052551,78.160805 164.053589,78.331703 164.045914,79.089722 
	C164.057999,80.118675 164.078812,80.560516 164.099625,81.002357 
z"/>
<path fill="#FEECE8" opacity="1.000000" stroke="none" 
	d="
M94.184517,77.620377 
	C94.335251,77.356392 94.610504,77.384850 94.990616,77.734863 
	C95.110306,77.912933 94.701775,77.924934 94.701775,77.924934 
	C94.701775,77.924934 94.323875,77.769341 94.184517,77.620377 
z"/>
<path fill="#FDE3DD" opacity="1.000000" stroke="none" 
	d="
M152.997330,58.611652 
	C152.694366,58.877476 152.423355,58.746254 152.298828,58.162136 
	C152.595810,58.022923 152.790466,58.191380 152.997330,58.611652 
z"/>
<path fill="#6BC0C7" opacity="1.000000" stroke="none" 
	d="
M202.039627,72.041786 
	C202.662384,77.756203 199.151077,81.962654 196.588470,86.457924 
	C196.126938,87.267525 194.363297,87.688141 193.249832,87.607941 
	C192.769333,87.573334 192.130829,85.824066 192.072281,84.823959 
	C191.998352,83.561409 192.167786,82.132408 192.718964,81.015373 
	C194.101395,78.213715 195.475952,75.685020 191.766144,73.445915 
	C191.131500,73.062874 191.335495,71.290359 191.000122,69.223106 
	C189.467957,71.278206 188.503372,72.572029 187.267975,73.554298 
	C187.344193,72.105553 187.691208,70.968361 188.038239,69.831161 
	C187.673248,69.589783 187.308258,69.348396 186.943283,69.107018 
	C185.873642,70.156860 184.831833,71.236977 183.729156,72.250877 
	C180.415726,75.297493 176.587372,76.023872 172.780899,73.646912 
	C169.101181,71.349106 167.581589,67.754387 168.746216,63.366657 
	C170.776978,55.715839 177.564453,53.597107 184.121628,58.513741 
	C185.498108,59.545837 187.336151,62.081383 187.828674,57.925522 
	C189.707535,61.210659 191.221680,64.284431 192.787170,67.722870 
	C194.075195,72.264709 195.311920,76.441879 196.591934,80.765266 
	C198.345123,77.721939 200.046753,74.768158 201.821838,71.870392 
	C201.895294,71.926414 202.039627,72.041786 202.039627,72.041786 
z"/>
<path fill="#506F74" opacity="1.000000" stroke="none" 
	d="
M242.271881,53.125458 
	C242.965363,53.075977 243.658844,53.026505 245.111130,52.961380 
	C247.545486,53.122028 249.221069,53.298332 250.896637,53.474640 
	C252.331543,54.581985 253.766449,55.689331 255.450684,56.957836 
	C256.598724,59.812641 257.497467,62.506283 258.706665,66.130348 
	C250.743652,66.130348 244.040329,66.130348 237.336990,66.130348 
	C236.966705,66.636093 236.596436,67.141830 236.226151,67.647575 
	C237.937622,69.703400 239.304840,72.874855 241.446747,73.535828 
	C244.193695,74.383522 247.622055,73.469841 250.637192,72.786888 
	C251.884064,72.504456 252.738327,70.738098 253.935089,69.873566 
	C254.484268,69.476845 255.428833,69.627487 256.194092,69.529907 
	C256.128448,70.435516 256.062836,71.341125 255.953629,72.574196 
	C255.910065,72.901665 255.932602,72.925697 255.662018,73.046066 
	C254.879776,73.758743 254.368149,74.351059 253.856506,74.943375 
	C253.566574,75.004898 253.324890,75.147942 252.735626,75.646072 
	C251.849426,76.262535 251.359070,76.605446 250.868698,76.948357 
	C250.868698,76.948357 250.418747,77.000793 249.946976,77.112015 
	C249.212936,77.444748 248.950668,77.666260 248.688416,77.887772 
	C243.844177,80.527679 240.565506,77.486900 237.284042,74.671074 
	C235.928375,73.507790 234.764221,72.121338 232.904236,70.582489 
	C232.469269,67.542435 232.643036,64.756271 233.039612,62.130001 
	C236.265564,59.235085 239.268723,56.180271 242.271881,53.125458 
M242.803986,63.161434 
	C246.655930,63.161434 250.507874,63.161434 254.814041,63.161434 
	C253.012436,58.150677 250.181656,55.934563 245.904144,56.033600 
	C241.697235,56.131001 238.921753,58.390877 237.213913,62.835506 
	C239.095474,62.965702 240.504379,63.063190 242.803986,63.161434 
z"/>
<path fill="#4D6971" opacity="1.000000" stroke="none" 
	d="
M187.463974,57.714157 
	C187.336151,62.081383 185.498108,59.545837 184.121628,58.513741 
	C177.564453,53.597107 170.776978,55.715839 168.746216,63.366657 
	C167.581589,67.754387 169.101181,71.349106 172.780899,73.646912 
	C176.587372,76.023872 180.415726,75.297493 183.729156,72.250877 
	C184.831833,71.236977 185.873642,70.156860 186.943283,69.107018 
	C187.308258,69.348396 187.673248,69.589783 188.038239,69.831161 
	C187.691208,70.968361 187.344193,72.105553 186.900574,73.584045 
	C186.523010,74.032936 186.290131,74.205475 185.707809,74.790344 
	C183.846939,76.061554 182.383606,76.985352 180.920288,77.909149 
	C180.920288,77.909149 181.012863,77.920052 180.545227,77.902893 
	C174.936935,78.382568 170.544266,77.089134 167.419418,72.668449 
	C166.514420,71.388161 165.514999,70.174629 164.534805,68.544037 
	C164.527512,67.126671 164.544266,66.095757 164.734344,64.776329 
	C166.681732,61.351021 168.455780,58.214226 170.229828,55.077427 
	C170.675735,54.824394 171.121658,54.571362 172.175766,54.114864 
	C176.496109,53.977711 180.208252,54.044018 183.959900,54.056461 
	C183.999390,54.002594 183.920761,54.107994 184.090271,54.392063 
	C185.177689,55.292934 186.095612,55.909737 187.022980,56.703392 
	C187.049179,57.230137 187.193039,57.508106 187.463974,57.714157 
z"/>
<path fill="#4C686E" opacity="1.000000" stroke="none" 
	d="
M215.989136,77.980087 
	C215.989136,77.980087 215.606552,77.888153 215.197037,77.668709 
	C214.194626,77.295532 213.601730,77.141800 213.008835,76.988068 
	C213.008835,76.988068 213.000000,77.000000 212.833160,76.754326 
	C212.118683,76.323105 211.571060,76.137558 211.023422,75.952003 
	C211.023422,75.952003 210.996109,75.995773 210.917267,75.758301 
	C210.624863,75.244423 210.344727,75.085060 209.998016,75.042740 
	C209.998016,75.042740 210.004303,74.993523 209.892975,74.774033 
	C209.587601,74.278404 209.326050,74.102661 208.997040,74.027298 
	C208.947617,73.699753 208.802765,73.421974 208.295837,72.766296 
	C207.943176,71.924866 207.857132,71.511108 208.292053,70.968216 
	C209.156693,70.742523 209.500336,70.645950 210.069214,70.740257 
	C211.848038,71.999725 213.401611,73.068321 215.191498,74.365585 
	C216.290543,74.678200 217.153290,74.762123 218.373199,74.895126 
	C220.511063,73.984970 222.291809,73.025734 224.077316,72.074997 
	C224.082092,72.083504 224.103790,72.108162 224.389404,71.945679 
	C226.111038,71.217964 227.547058,70.652748 228.848984,70.352005 
	C228.483536,72.045441 228.252167,73.474396 227.760498,74.897758 
	C227.328812,74.919624 227.157425,74.947090 226.986038,74.974556 
	C226.435913,75.166573 225.885788,75.358589 224.934525,75.872307 
	C224.208176,76.343529 224.009460,76.593597 223.937256,76.944206 
	C223.937256,76.944206 223.970917,76.916878 223.553101,76.939445 
	C220.753250,77.301369 218.371185,77.640724 215.989136,77.980087 
z"/>
<path fill="#73C6CC" opacity="1.000000" stroke="none" 
	d="
M164.558853,68.930496 
	C165.514999,70.174629 166.514420,71.388161 167.419418,72.668449 
	C170.544266,77.089134 174.936935,78.382568 180.502228,77.883759 
	C179.698883,78.580902 178.414490,79.954903 177.253082,79.857796 
	C173.078964,79.508789 168.946396,78.662910 164.424820,77.997360 
	C164.051514,77.989906 163.713989,77.960686 163.546509,77.970581 
	C163.331726,75.324707 163.284409,72.668953 163.588959,69.512878 
	C164.146851,68.985214 164.352844,68.957855 164.558853,68.930496 
z"/>
<path fill="#4A595C" opacity="1.000000" stroke="none" 
	d="
M232.816803,61.970108 
	C232.643036,64.756271 232.469269,67.542435 232.538620,70.617714 
	C232.818802,72.305374 232.855881,73.703918 232.504700,75.454422 
	C231.453506,73.875412 230.790558,71.944435 230.102295,69.672928 
	C230.127838,68.880348 230.178665,68.428291 230.448975,67.723923 
	C230.528625,65.990448 230.388809,64.509293 230.207275,62.689232 
	C230.178528,61.896072 230.191483,61.441814 230.411652,60.786480 
	C230.478210,59.728096 230.337509,58.870792 230.154495,57.583195 
	C230.148956,55.424629 230.185745,53.696354 230.452988,51.682655 
	C231.365906,49.293465 232.048386,47.189697 232.788422,45.544266 
	C232.836243,51.325100 232.826523,56.647606 232.816803,61.970108 
z"/>
<path fill="#6BC0C7" opacity="1.000000" stroke="none" 
	d="
M207.771088,71.097343 
	C207.857132,71.511108 207.943176,71.924866 208.087463,72.650436 
	C206.371521,72.645401 204.597305,72.328568 202.431366,72.026764 
	C202.039627,72.041786 201.895294,71.926414 201.886322,71.519196 
	C203.249542,68.741783 204.621750,66.371590 205.996979,64.000740 
	C206.000000,64.000084 205.998947,64.005997 206.014557,64.395798 
	C206.610474,66.889503 207.190781,68.993423 207.771088,71.097343 
z"/>
<path fill="#506F74" opacity="1.000000" stroke="none" 
	d="
M230.127609,70.013458 
	C230.790558,71.944435 231.453506,73.875412 232.460876,75.870781 
	C231.736786,79.710899 230.140030,76.914322 228.381165,75.849106 
	C228.037964,75.257355 228.029388,75.080353 228.020798,74.903358 
	C228.252167,73.474396 228.483536,72.045441 229.135818,70.343559 
	C229.747040,70.051582 229.937317,70.032524 230.127609,70.013458 
z"/>
<path fill="#6BC0C7" opacity="1.000000" stroke="none" 
	d="
M216.054169,78.339172 
	C218.371185,77.640724 220.753250,77.301369 223.530884,76.938568 
	C221.879761,79.942619 219.181442,80.117195 216.054169,78.339172 
z"/>
<path fill="#6BC0C7" opacity="1.000000" stroke="none" 
	d="
M181.310944,77.939636 
	C182.383606,76.985352 183.846939,76.061554 185.602386,74.983688 
	C186.246109,75.968040 186.597702,77.106453 187.071945,78.641960 
	C184.834793,78.362091 183.268204,78.166107 181.310944,77.939636 
z"/>
<path fill="#6FBFC6" opacity="1.000000" stroke="none" 
	d="
M254.196777,74.927414 
	C254.368149,74.351059 254.879776,73.758743 255.665878,73.057144 
	C255.472565,73.602386 255.004807,74.256920 254.196777,74.927414 
z"/>
<path fill="#73C6CC" opacity="1.000000" stroke="none" 
	d="
M164.302826,80.845963 
	C164.078812,80.560516 164.057999,80.118675 164.057373,79.345818 
	C164.220383,79.573059 164.363205,80.131310 164.302826,80.845963 
z"/>
<path fill="#6BC0C7" opacity="1.000000" stroke="none" 
	d="
M213.193756,77.248741 
	C213.601730,77.141800 214.194626,77.295532 215.000519,77.677811 
	C214.601913,77.774040 213.990295,77.641731 213.193756,77.248741 
z"/>
<path fill="#6FBFC6" opacity="1.000000" stroke="none" 
	d="
M251.200409,76.944427 
	C251.359070,76.605446 251.849426,76.262535 252.635345,75.834702 
	C252.464645,76.146675 251.998383,76.543579 251.200409,76.944427 
z"/>
<path fill="#6BC0C7" opacity="1.000000" stroke="none" 
	d="
M211.176971,76.210716 
	C211.571060,76.137558 212.118683,76.323105 212.837189,76.748268 
	C212.448868,76.815063 211.889709,76.642250 211.176971,76.210716 
z"/>
<path fill="#6BC0C7" opacity="1.000000" stroke="none" 
	d="
M224.168137,76.867271 
	C224.009460,76.593597 224.208176,76.343529 224.769775,76.122833 
	C224.893845,76.371918 224.691467,76.618149 224.168137,76.867271 
z"/>
<path fill="#6BC0C7" opacity="1.000000" stroke="none" 
	d="
M227.760498,74.897758 
	C228.029388,75.080353 228.037964,75.257355 228.090469,75.696526 
	C227.835037,75.785728 227.535690,75.612762 227.111191,75.207169 
	C227.157425,74.947090 227.328812,74.919624 227.760498,74.897758 
z"/>
<path fill="#6FBFC6" opacity="1.000000" stroke="none" 
	d="
M248.951965,77.855659 
	C248.950668,77.666260 249.212936,77.444748 249.731506,77.181847 
	C249.730377,77.368156 249.472946,77.595856 248.951965,77.855659 
z"/>
<path fill="#6BC0C7" opacity="1.000000" stroke="none" 
	d="
M210.111237,75.257942 
	C210.344727,75.085060 210.624863,75.244423 210.939972,75.746223 
	C210.707352,75.906715 210.434998,75.740562 210.111237,75.257942 
z"/>
<path fill="#6BC0C7" opacity="1.000000" stroke="none" 
	d="
M209.098282,74.241455 
	C209.326050,74.102661 209.587601,74.278404 209.868622,74.778671 
	C209.641907,74.905579 209.389893,74.723175 209.098282,74.241455 
z"/>
<path fill="#65C7D0" opacity="1.000000" stroke="none" 
	d="
M183.998779,52.002563 
	C184.390396,50.458164 184.782013,48.913773 185.354202,46.657318 
	C187.413635,48.235435 188.916534,49.387089 190.334335,50.473530 
	C194.092514,48.682915 197.807861,46.912704 201.943130,44.942421 
	C203.281342,49.300587 203.485580,53.665684 208.410782,49.157959 
	C209.369751,48.280258 213.002350,50.323776 215.471985,51.040257 
	C218.743042,46.027523 222.058884,45.101894 227.629395,48.332451 
	C227.995911,49.499435 227.996124,50.249565 227.607834,51.000824 
	C226.146423,51.995152 225.073517,52.988346 223.611633,53.875908 
	C217.983627,51.582569 213.482834,53.807209 208.774933,55.946747 
	C208.376648,54.894497 208.205139,54.045090 208.033646,53.195679 
	C207.078506,53.896313 205.692200,54.389965 205.239944,55.332012 
	C202.769547,60.477932 200.528763,65.734070 197.881348,71.689438 
	C196.491531,69.177925 195.619370,67.601845 194.742767,65.664185 
	C193.548416,62.435471 192.577667,59.446743 191.081406,56.749535 
	C190.262589,55.273495 188.555618,54.290157 186.891983,53.078087 
	C185.663467,53.417019 184.792114,53.762505 183.920761,54.107990 
	C183.920761,54.107994 183.999390,54.002594 183.986404,53.704834 
	C183.981873,52.938900 183.990326,52.470734 183.998779,52.002563 
M197.395447,60.831898 
	C198.924026,58.597897 200.452606,56.363895 202.962891,52.695137 
	C199.439163,53.272942 197.384949,53.609783 195.330750,53.946621 
	C195.765961,56.192905 196.201172,58.439190 197.395447,60.831898 
z"/>
<path fill="#6FBFC6" opacity="1.000000" stroke="none" 
	d="
M227.996338,50.999695 
	C227.996124,50.249565 227.995911,49.499435 227.995178,48.374222 
	C228.456833,46.820518 228.919006,45.641895 229.672333,44.668762 
	C230.049805,47.238861 230.136169,49.603474 230.222534,51.968082 
	C230.185745,53.696354 230.148956,55.424629 230.065918,57.950081 
	C230.081253,59.494026 230.142838,60.240791 230.204422,60.987556 
	C230.191483,61.441814 230.178528,61.896072 230.119629,63.094894 
	C230.125610,65.218384 230.177551,66.597305 230.229492,67.976234 
	C230.178665,68.428291 230.127838,68.880348 230.102295,69.672928 
	C229.937317,70.032524 229.747040,70.051582 229.269913,70.079086 
	C227.547058,70.652748 226.111038,71.217964 224.347839,71.572418 
	C223.212357,70.113815 222.404068,68.865982 221.361130,67.255920 
	C225.031113,67.505074 229.231094,68.360031 228.132294,62.607388 
	C223.694397,60.674397 219.325699,58.771549 215.246826,56.607315 
	C219.869186,57.304394 224.201691,58.262863 229.051895,59.335861 
	C227.887802,57.842937 226.828613,56.484539 226.100006,54.963219 
	C226.952515,53.533432 227.474426,52.266563 227.996338,50.999695 
z"/>
<path fill="#65C7D0" opacity="1.000000" stroke="none" 
	d="
M234.006042,42.999790 
	C235.361374,42.481899 236.716721,41.964005 238.999847,41.091587 
	C238.999847,44.982262 238.999847,48.531761 238.640625,52.602116 
	C237.120300,53.732758 235.959213,54.342548 234.006042,55.368313 
	C234.006042,50.576431 234.006042,46.788113 234.006042,42.999790 
z"/>
<path fill="#6FBFC6" opacity="1.000000" stroke="none" 
	d="
M233.766754,42.996567 
	C234.006042,46.788113 234.006042,50.576431 234.006042,55.368313 
	C235.959213,54.342548 237.120300,53.732758 238.640396,53.060898 
	C239.443863,52.998066 239.888336,52.997299 240.666107,52.990341 
	C241.211472,53.000732 241.423569,53.017319 241.953766,53.079681 
	C239.268723,56.180271 236.265564,59.235085 233.039612,62.130001 
	C232.826523,56.647606 232.836243,51.325100 232.878113,45.200806 
	C232.956467,43.929310 233.002655,43.459610 233.048843,42.989910 
	C233.048843,42.989910 233.527451,42.993340 233.766754,42.996567 
z"/>
<path fill="#65C7D0" opacity="1.000000" stroke="none" 
	d="
M235.192108,36.408058 
	C234.917801,34.382668 234.949768,32.559155 234.981735,30.735638 
	C237.223419,30.998062 239.465088,31.260487 241.706772,31.522911 
	C241.777145,32.035206 241.847534,32.547501 241.917923,33.059795 
	C239.778061,34.243172 237.638214,35.426552 235.192108,36.408058 
z"/>
<path fill="#65C7D0" opacity="1.000000" stroke="none" 
	d="
M227.671356,31.636063 
	C227.878677,32.319405 227.943054,32.644741 227.960861,32.972610 
	C228.100189,35.538830 227.182724,37.456997 224.351105,36.712044 
	C223.471664,36.480671 222.347458,34.160259 222.626663,33.154873 
	C223.263657,30.861197 224.624405,28.583782 227.671356,31.636063 
z"/>
<path fill="#65C7D0" opacity="1.000000" stroke="none" 
	d="
M173.015610,43.398575 
	C173.004303,39.541798 173.004303,36.106510 173.004303,32.671223 
	C173.628708,32.675621 174.253098,32.680019 174.877502,32.684418 
	C174.877502,36.596214 174.877502,40.508007 174.877502,44.419804 
	C174.260635,44.219891 173.643784,44.019978 173.015610,43.398575 
z"/>
<path fill="#73C6CC" opacity="1.000000" stroke="none" 
	d="
M183.588364,51.993393 
	C183.990326,52.470734 183.981873,52.938900 183.946899,53.758698 
	C180.208252,54.044018 176.496109,53.977711 172.376724,53.953217 
	C171.978409,53.552448 171.987350,53.109863 172.000580,52.335388 
	C175.729233,51.997074 179.453598,51.990650 183.588364,51.993393 
z"/>
<path fill="#506F74" opacity="1.000000" stroke="none" 
	d="
M232.986206,42.812275 
	C233.002655,43.459610 232.956467,43.929310 232.820572,44.742470 
	C232.048386,47.189697 231.365906,49.293465 230.452988,51.682655 
	C230.136169,49.603474 230.049805,47.238861 229.903259,44.432323 
	C229.914368,43.600544 229.985672,43.210697 230.426346,42.483196 
	C231.493393,42.183544 232.191071,42.221542 232.888733,42.259537 
	C232.888733,42.259537 232.923553,42.634640 232.986206,42.812275 
z"/>
<path fill="#6FBFC6" opacity="1.000000" stroke="none" 
	d="
M232.920380,41.889984 
	C232.191071,42.221542 231.493393,42.183544 230.448151,42.186661 
	C230.600494,41.292297 231.100388,40.356819 231.600281,39.421341 
	C232.050858,40.121037 232.501434,40.820732 232.920380,41.889984 
z"/>
<path fill="#6FBFC6" opacity="1.000000" stroke="none" 
	d="
M250.756241,53.109711 
	C249.221069,53.298332 247.545486,53.122028 245.453445,52.898544 
	C246.896591,52.815838 248.756226,52.780312 250.756241,53.109711 
z"/>
<path fill="#73C6CC" opacity="1.000000" stroke="none" 
	d="
M169.843872,55.058540 
	C168.455780,58.214226 166.681732,61.351021 164.422928,64.737122 
	C163.733734,64.945908 163.529297,64.905388 163.324860,64.864876 
	C163.314682,62.508427 163.304520,60.151978 163.450546,57.372475 
	C165.557129,56.312832 167.507523,55.676243 169.843872,55.058540 
z"/>
<path fill="#73C6CC" opacity="1.000000" stroke="none" 
	d="
M163.909622,55.021790 
	C163.534988,54.578857 163.438400,54.108929 163.476807,53.296986 
	C164.275650,53.289871 164.939468,53.624771 165.603302,53.959671 
	C165.131424,54.304710 164.659546,54.649754 163.909622,55.021790 
z"/>
<path fill="#FEF5F3" opacity="1.000000" stroke="none" 
	d="
M59.994049,74.956085 
	C53.267712,73.705788 50.252922,69.802437 51.008907,63.838924 
	C51.651466,58.770115 55.344215,55.829956 60.741066,56.090187 
	C65.353630,56.312599 68.505020,59.728867 68.968369,65.009018 
	C69.468353,70.706619 67.055351,73.502792 59.994049,74.956085 
z"/>
<path fill="#FEE3E2" opacity="1.000000" stroke="none" 
	d="
M92.031113,63.866989 
	C91.117493,63.632500 90.203873,63.398006 88.926422,63.070129 
	C90.703270,58.761036 93.477448,55.640789 97.825005,56.123528 
	C100.709061,56.443760 103.421989,58.799728 106.034233,60.514477 
	C106.405769,60.758369 105.773048,62.532146 104.844284,63.660538 
	C100.065994,63.771149 96.048553,63.819069 92.031113,63.866989 
z"/>
<path fill="#BC3230" opacity="1.000000" stroke="none" 
	d="
M91.886002,64.120316 
	C96.048553,63.819069 100.065994,63.771149 104.541306,63.789970 
	C105.003349,64.306793 105.007515,64.756874 104.534103,65.596329 
	C99.377411,65.955902 94.698288,65.926102 90.019165,65.896301 
	C90.593071,65.388756 91.166977,64.881203 91.886002,64.120316 
z"/>
<path fill="#FFC3BD" opacity="1.000000" stroke="none" 
	d="
M89.773026,66.022354 
	C94.698288,65.926102 99.377411,65.955902 104.519073,65.933495 
	C106.356689,65.922287 107.731750,65.963295 109.517960,65.973923 
	C105.428581,66.292686 100.931000,66.688751 96.426254,66.970467 
	C94.285973,67.104317 92.132050,67.020126 89.519852,67.045013 
	C89.212547,66.753021 89.369713,66.450714 89.773026,66.022354 
z"/>
<path fill="#FFC3BD" opacity="1.000000" stroke="none" 
	d="
M110.659744,62.035099 
	C111.207420,63.167328 111.388390,64.415245 111.296387,65.836929 
	C110.844292,65.997185 110.665154,65.983665 110.217918,65.944977 
	C110.064217,64.663460 110.178619,63.407124 110.659744,62.035099 
z"/>
<path fill="#FDF4F2" opacity="1.000000" stroke="none" 
	d="
M149.202271,72.191864 
	C145.720444,75.288864 141.741150,76.368431 138.543854,73.651794 
	C136.209183,71.668114 134.484253,68.098419 134.014328,65.003868 
	C133.399292,60.953709 135.729630,57.459152 139.941788,56.321655 
	C144.084610,55.202885 148.220947,55.991173 150.233887,60.164433 
	C152.069962,63.971016 153.750748,68.273758 149.202271,72.191864 
z"/>
<path fill="#CA2528" opacity="1.000000" stroke="none" 
	d="
M159.156830,43.125248 
	C159.524002,47.548672 159.891159,51.972095 160.523529,57.160748 
	C160.763489,59.601429 160.738235,61.276882 160.502045,63.193558 
	C160.433304,64.638954 160.575531,65.843132 160.757904,67.451271 
	C160.771408,69.205788 160.744781,70.556343 160.500061,72.204468 
	C160.189194,73.982849 160.096405,75.463669 160.003601,76.944489 
	C159.841232,76.995003 159.678848,77.045509 159.182953,76.819962 
	C158.681625,76.282829 158.452438,76.097809 158.161865,75.988846 
	C158.131546,75.542900 158.101212,75.096954 158.350098,74.121597 
	C158.482269,72.729477 158.335236,71.866753 158.188202,71.004036 
	C158.147614,70.553978 158.107010,70.103920 158.368088,69.040924 
	C158.525330,66.288734 158.380890,64.149483 158.236450,62.010227 
	C158.194244,60.934540 158.152023,59.858849 158.410492,58.056206 
	C158.859711,52.594582 159.008270,47.859913 159.156830,43.125248 
z"/>
<path fill="#C24344" opacity="1.000000" stroke="none" 
	d="
M158.126312,62.261719 
	C158.380890,64.149483 158.525330,66.288734 158.428528,68.706062 
	C158.112534,68.820755 158.037766,68.657379 157.954529,67.913666 
	C157.897751,66.894699 157.849411,66.456047 157.801086,66.017403 
	C157.843964,65.266991 157.886856,64.516579 157.869843,63.394142 
	C157.878662,62.852478 157.947418,62.682846 158.126312,62.261719 
z"/>
<path fill="#E45F61" opacity="1.000000" stroke="none" 
	d="
M160.244354,76.998718 
	C160.096405,75.463669 160.189194,73.982849 160.616821,72.577805 
	C161.037048,73.429413 161.122452,74.205254 161.207855,74.981094 
	C161.151581,75.426987 161.095291,75.872871 161.006897,76.655174 
	C160.974792,76.991585 160.485077,77.052956 160.244354,76.998718 
z"/>
<path fill="#C24344" opacity="1.000000" stroke="none" 
	d="
M158.076569,71.249542 
	C158.335236,71.866753 158.482269,72.729477 158.415985,73.790039 
	C158.124512,73.826256 158.046387,73.664642 157.941330,73.001411 
	C157.875015,72.335648 157.835617,72.171509 157.796234,72.007370 
	C157.852478,71.836601 157.908722,71.665825 158.076569,71.249542 
z"/>
<path fill="#FFD1CF" opacity="1.000000" stroke="none" 
	d="
M157.613708,66.173325 
	C157.849411,66.456047 157.897751,66.894699 157.870117,67.657707 
	C157.671555,67.431137 157.548950,66.880196 157.613708,66.173325 
z"/>
<path fill="#C24344" opacity="1.000000" stroke="none" 
	d="
M158.141663,76.263580 
	C158.452438,76.097809 158.681625,76.282829 158.937653,76.750031 
	C158.724411,76.816872 158.422943,76.677597 158.141663,76.263580 
z"/>
<path fill="#FFD1CF" opacity="1.000000" stroke="none" 
	d="
M157.659760,72.103378 
	C157.835617,72.171509 157.875015,72.335648 157.855743,72.746117 
	C157.431946,72.802345 157.340683,72.537987 157.659760,72.103378 
z"/>
<path fill="#FFEFEE" opacity="1.000000" stroke="none" 
	d="
M161.457520,74.654648 
	C161.122452,74.205254 161.037048,73.429413 160.834900,72.280235 
	C160.744781,70.556343 160.771408,69.205788 160.871887,67.050949 
	C160.868164,65.148552 160.790588,64.050446 160.712997,62.952335 
	C160.738235,61.276882 160.763489,59.601429 160.747894,57.509476 
	C160.813202,52.711731 160.919342,48.330494 161.075989,43.488945 
	C161.419266,46.400208 161.933563,49.770126 161.958755,53.143688 
	C162.011429,60.204178 161.806381,67.266586 161.457520,74.654648 
z"/>
<path fill="#9EDCE2" opacity="1.000000" stroke="none" 
	d="
M163.218811,65.285225 
	C163.529297,64.905388 163.733734,64.945908 164.249603,65.025635 
	C164.544266,66.095757 164.527512,67.126671 164.534805,68.544037 
	C164.352844,68.957855 164.146851,68.985214 163.637482,69.075439 
	C163.260345,67.994064 163.186569,66.849823 163.218811,65.285225 
z"/>
<path fill="#C24344" opacity="1.000000" stroke="none" 
	d="
M158.939636,43.089325 
	C159.008270,47.859913 158.859711,52.594582 158.465454,57.655434 
	C158.167145,53.292389 158.114532,48.603157 158.173767,43.456001 
	C158.285599,42.998077 158.722427,43.053402 158.939636,43.089325 
z"/>
<path fill="#4C6569" opacity="1.000000" stroke="none" 
	d="
M194.747192,66.025772 
	C195.619370,67.601845 196.491531,69.177925 197.881348,71.689438 
	C200.528763,65.734070 202.769547,60.477932 205.239944,55.332012 
	C205.692200,54.389965 207.078506,53.896313 208.033646,53.195679 
	C208.205139,54.045090 208.376648,54.894497 208.822083,56.252323 
	C209.754166,57.540451 210.412308,58.320164 210.924805,59.445984 
	C210.467453,63.377857 210.155731,66.963615 209.843994,70.549377 
	C209.500336,70.645950 209.156693,70.742523 208.292053,70.968216 
	C207.190781,68.993423 206.610474,66.889503 206.182114,64.306732 
	C206.397263,63.719677 206.539551,63.552414 206.510315,63.513283 
	C206.367340,63.321911 206.178635,63.164692 206.090652,62.756687 
	C206.122314,62.109058 206.069427,61.700146 206.016541,61.291237 
	C205.861008,61.337467 205.567581,61.416367 205.569672,61.425240 
	C205.695435,61.956005 205.845505,62.481010 205.993958,63.255230 
	C205.994629,63.503899 205.993958,64.001404 205.993958,64.001404 
	C204.621750,66.371590 203.249542,68.741783 201.812866,71.463181 
	C200.046753,74.768158 198.345123,77.721939 196.591934,80.765266 
	C195.311920,76.441879 194.075195,72.264709 192.954193,67.441856 
	C193.628983,66.539375 194.188095,66.282578 194.747192,66.025772 
z"/>
<path fill="#4B6C75" opacity="1.000000" stroke="none" 
	d="
M194.742767,65.664192 
	C194.188095,66.282578 193.628983,66.539375 192.902863,67.077187 
	C191.221680,64.284431 189.707535,61.210659 187.828674,57.925522 
	C187.193039,57.508106 187.049179,57.230137 187.074661,56.273048 
	C187.160995,54.805443 187.205063,53.945042 187.249146,53.084641 
	C188.555618,54.290157 190.262589,55.273495 191.081406,56.749535 
	C192.577667,59.446743 193.548416,62.435471 194.742767,65.664192 
z"/>
<path fill="#6DC4CB" opacity="1.000000" stroke="none" 
	d="
M242.358643,63.161057 
	C240.504379,63.063190 239.095474,62.965702 237.213913,62.835506 
	C238.921753,58.390877 241.697235,56.131001 245.904144,56.033600 
	C250.181656,55.934563 253.012436,58.150677 254.814041,63.161434 
	C250.507874,63.161434 246.655930,63.161434 242.358643,63.161057 
z"/>
<path fill="#73C6CC" opacity="1.000000" stroke="none" 
	d="
M186.891983,53.078087 
	C187.205063,53.945042 187.160995,54.805443 187.065216,56.096191 
	C186.095612,55.909737 185.177689,55.292934 184.090271,54.392059 
	C184.792114,53.762505 185.663467,53.417019 186.891983,53.078087 
z"/>
<path fill="#63C8CF" opacity="1.000000" stroke="none" 
	d="
M214.956985,56.868698 
	C219.325699,58.771549 223.694397,60.674397 228.132294,62.607388 
	C229.231094,68.360031 225.031113,67.505074 221.361130,67.255920 
	C222.404068,68.865982 223.212357,70.113815 224.062225,71.734909 
	C224.103790,72.108162 224.082092,72.083504 223.701660,72.051773 
	C221.552841,72.962051 219.784439,73.904053 218.016052,74.846046 
	C217.153290,74.762123 216.290543,74.678200 215.160034,74.006134 
	C213.512009,70.643143 212.131699,67.868279 210.846558,65.284714 
	C211.526718,62.990616 212.266266,60.496212 213.163483,57.751717 
	C213.866425,57.290649 214.411697,57.079678 214.956985,56.868698 
M217.397324,62.199772 
	C217.787567,62.204037 218.177795,62.208305 218.568039,62.212570 
	C218.569626,62.050686 218.582092,61.748089 218.571228,61.747250 
	C218.182861,61.717209 217.792328,61.715385 217.397324,62.199772 
z"/>
<path fill="#6FBFC6" opacity="1.000000" stroke="none" 
	d="
M213.005814,58.001808 
	C212.266266,60.496212 211.526718,62.990616 210.846558,65.284714 
	C212.131699,67.868279 213.512009,70.643143 214.923752,73.777451 
	C213.401611,73.068321 211.848038,71.999725 210.069229,70.740257 
	C210.155731,66.963615 210.467453,63.377857 211.168381,59.309124 
	C212.040329,58.551369 212.523071,58.276588 213.005814,58.001808 
z"/>
<path fill="#6FBFC6" opacity="1.000000" stroke="none" 
	d="
M218.373199,74.895126 
	C219.784439,73.904053 221.552841,72.962051 223.696884,72.043274 
	C222.291809,73.025734 220.511063,73.984970 218.373199,74.895126 
z"/>
<path fill="#506F74" opacity="1.000000" stroke="none" 
	d="
M230.448975,67.723923 
	C230.177551,66.597305 230.125610,65.218384 230.161316,63.433792 
	C230.388809,64.509293 230.528625,65.990448 230.448975,67.723923 
z"/>
<path fill="#506F74" opacity="1.000000" stroke="none" 
	d="
M230.411652,60.786480 
	C230.142838,60.240791 230.081253,59.494026 230.108246,58.380375 
	C230.337509,58.870792 230.478210,59.728096 230.411652,60.786480 
z"/>
<path fill="#4C686E" opacity="1.000000" stroke="none" 
	d="
M213.163483,57.751717 
	C212.523071,58.276588 212.040329,58.551369 211.314026,58.963013 
	C210.412308,58.320164 209.754166,57.540451 209.048889,56.455162 
	C213.482834,53.807209 217.983627,51.582569 223.827545,54.028732 
	C224.878113,54.566841 225.323761,54.846489 225.769424,55.126137 
	C226.828613,56.484539 227.887802,57.842937 229.051895,59.335861 
	C224.201691,58.262863 219.869186,57.304394 215.246826,56.607315 
	C214.411697,57.079678 213.866425,57.290649 213.163483,57.751717 
z"/>
<path fill="#65C7D0" opacity="1.000000" stroke="none" 
	d="
M197.015930,60.758686 
	C196.201172,58.439190 195.765961,56.192905 195.330750,53.946625 
	C197.384949,53.609783 199.439163,53.272942 202.962891,52.695137 
	C200.452606,56.363895 198.924026,58.597897 197.015930,60.758686 
z"/>
<path fill="#65C7D0" opacity="1.000000" stroke="none" 
	d="
M226.100006,54.963219 
	C225.323761,54.846489 224.878113,54.566841 224.216522,54.134369 
	C225.073517,52.988346 226.146423,51.995152 227.607834,51.000824 
	C227.474426,52.266563 226.952515,53.533432 226.100006,54.963219 
z"/>
<path fill="#E45F61" opacity="1.000000" stroke="none" 
	d="
M160.502045,63.193558 
	C160.790588,64.050446 160.868164,65.148552 160.831757,66.646988 
	C160.575531,65.843132 160.433304,64.638954 160.502045,63.193558 
z"/>
<path fill="#4C686E" opacity="1.000000" stroke="none" 
	d="
M205.993286,63.006561 
	C205.845505,62.481010 205.695435,61.956005 205.569672,61.425240 
	C205.567581,61.416367 205.861008,61.337467 206.016541,61.291237 
	C206.069427,61.700146 206.122314,62.109058 206.087524,62.759056 
	C205.999863,63.000137 205.993286,63.006561 205.993286,63.006561 
z"/>
<path fill="#4C686E" opacity="1.000000" stroke="none" 
	d="
M206.002991,62.997772 
	C206.178635,63.164692 206.367340,63.321911 206.510315,63.513283 
	C206.539551,63.552414 206.397263,63.719677 206.166504,63.916939 
	C205.998947,64.005997 206.000000,64.000084 205.996979,64.000748 
	C205.993958,64.001404 205.994629,63.503899 205.993958,63.255230 
	C205.993286,63.006561 205.999863,63.000137 206.002991,62.997772 
z"/>
<path fill="#6FBFC6" opacity="1.000000" stroke="none" 
	d="
M217.399704,61.954697 
	C217.792328,61.715385 218.182861,61.717209 218.571228,61.747250 
	C218.582092,61.748089 218.569626,62.050686 218.568039,62.212570 
	C218.177795,62.208305 217.787567,62.204037 217.399704,61.954697 
z"/>
</svg>